<svg xmlns="http://www.w3.org/2000/svg" xmlns:xlink="http://www.w3.org/1999/xlink" width="500" zoomAndPan="magnify" viewBox="0 0 375 374.999991" height="500" preserveAspectRatio="xMidYMid meet" version="1.0"><defs><clipPath id="0660f5a7ac"><path d="M 161 301 L 258 301 L 258 338.851562 L 161 338.851562 Z M 161 301 " clip-rule="nonzero"/></clipPath><clipPath id="0a45bb8dd8"><path d="M 160 300 L 259 300 L 259 338.851562 L 160 338.851562 Z M 160 300 " clip-rule="nonzero"/></clipPath><clipPath id="260483788e"><path d="M 81 301 L 188 301 L 188 338.851562 L 81 338.851562 Z M 81 301 " clip-rule="nonzero"/></clipPath><clipPath id="f32e6d78ce"><path d="M 80 300 L 189 300 L 189 338.851562 L 80 338.851562 Z M 80 300 " clip-rule="nonzero"/></clipPath><clipPath id="c15bebff2a"><path d="M 75 338 L 83 338 L 83 338.851562 L 75 338.851562 Z M 75 338 " clip-rule="nonzero"/></clipPath><clipPath id="53584c2b84"><path d="M 174 35.851562 L 189 35.851562 L 189 51 L 174 51 Z M 174 35.851562 " clip-rule="nonzero"/></clipPath><clipPath id="6107991056"><path d="M 324 188 L 346.761719 188 L 346.761719 211 L 324 211 Z M 324 188 " clip-rule="nonzero"/></clipPath></defs><path fill="#5046c3" d="M 294.578125 59.984375 L 177.003906 59.984375 L 177.003906 264.320312 L 222.492188 264.320312 C 195.804688 245.898438 200.929688 229.28125 200.929688 229.28125 L 294.578125 229.28125 C 304.320312 229.28125 312.214844 221.386719 312.214844 211.648438 L 312.214844 77.625 C 312.214844 67.886719 304.320312 59.984375 294.578125 59.984375 Z M 294.578125 59.984375 " fill-opacity="1" fill-rule="nonzero"/><path fill="#5046c3" d="M 222.492188 264.902344 L 177.003906 264.902344 C 176.683594 264.902344 176.421875 264.640625 176.421875 264.320312 L 176.421875 59.984375 C 176.421875 59.664062 176.683594 59.402344 177.003906 59.402344 L 294.578125 59.402344 C 304.625 59.402344 312.800781 67.578125 312.800781 77.625 L 312.800781 211.648438 C 312.800781 221.695312 304.625 229.867188 294.578125 229.867188 L 201.390625 229.867188 C 200.867188 232.511719 199.152344 247.5 222.824219 263.839844 C 223.035156 263.984375 223.125 264.25 223.050781 264.492188 C 222.976562 264.738281 222.75 264.902344 222.492188 264.902344 Z M 177.589844 263.738281 L 220.652344 263.738281 C 195.605469 245.71875 200.160156 229.792969 200.371094 229.109375 C 200.445312 228.867188 200.671875 228.699219 200.929688 228.699219 L 294.578125 228.699219 C 303.980469 228.699219 311.632812 221.050781 311.632812 211.648438 L 311.632812 77.625 C 311.632812 68.21875 303.980469 60.570312 294.578125 60.570312 L 177.589844 60.570312 Z M 177.589844 263.738281 " fill-opacity="1" fill-rule="nonzero"/><path fill="#ffffff" d="M 300.835938 77.625 L 300.835938 211.648438 C 300.835938 221.386719 292.941406 229.28125 283.199219 229.28125 L 74.734375 229.28125 C 64.996094 229.28125 57.097656 221.386719 57.097656 211.648438 L 57.097656 77.625 C 57.097656 67.882812 64.996094 59.988281 74.734375 59.988281 L 283.199219 59.988281 C 292.941406 59.988281 300.835938 67.882812 300.835938 77.625 Z M 300.835938 77.625 " fill-opacity="1" fill-rule="nonzero"/><path fill="#6c68f9" d="M 300.835938 77.625 L 300.835938 81.796875 C 300.835938 72.058594 292.941406 64.15625 283.199219 64.15625 L 74.734375 64.15625 C 64.996094 64.15625 57.101562 72.058594 57.101562 81.796875 L 57.101562 77.625 C 57.101562 67.886719 64.996094 59.984375 74.734375 59.984375 L 283.199219 59.984375 C 292.941406 59.984375 300.835938 67.886719 300.835938 77.625 Z M 300.835938 77.625 " fill-opacity="1" fill-rule="nonzero"/><path fill="#fede5a" d="M 227.757812 88.222656 L 227.757812 181.953125 C 227.757812 187.019531 223.652344 191.125 218.582031 191.125 L 85.183594 191.125 C 80.117188 191.125 76.011719 187.019531 76.011719 181.953125 L 76.011719 88.222656 C 76.011719 83.15625 80.117188 79.050781 85.183594 79.050781 L 218.582031 79.050781 C 223.652344 79.050781 227.757812 83.15625 227.757812 88.222656 Z M 227.757812 88.222656 " fill-opacity="1" fill-rule="nonzero"/><path fill="#ffffff" d="M 227.757812 88.226562 L 227.757812 92.113281 C 227.757812 87.046875 223.648438 82.941406 218.585938 82.941406 L 85.183594 82.941406 C 80.117188 82.941406 76.011719 87.046875 76.011719 92.113281 L 76.011719 88.226562 C 76.011719 83.15625 80.117188 79.046875 85.183594 79.046875 L 218.585938 79.046875 C 223.648438 79.046875 227.757812 83.15625 227.757812 88.226562 Z M 227.757812 88.226562 " fill-opacity="1" fill-rule="nonzero"/><path fill="#6c68f9" d="M 281.925781 84.6875 L 281.925781 108.660156 C 281.925781 111.773438 279.398438 114.296875 276.285156 114.296875 L 248.824219 114.296875 C 245.710938 114.296875 243.1875 111.773438 243.1875 108.660156 L 243.1875 84.6875 C 243.1875 81.574219 245.710938 79.050781 248.824219 79.050781 L 276.285156 79.050781 C 279.398438 79.050781 281.925781 81.574219 281.925781 84.6875 Z M 281.925781 84.6875 " fill-opacity="1" fill-rule="nonzero"/><path fill="#ffffff" d="M 281.925781 84.691406 L 281.925781 87.433594 C 281.925781 84.324219 279.402344 81.796875 276.285156 81.796875 L 248.824219 81.796875 C 245.710938 81.796875 243.191406 84.324219 243.191406 87.433594 L 243.191406 84.691406 C 243.191406 81.574219 245.710938 79.046875 248.824219 79.046875 L 276.285156 79.046875 C 279.402344 79.046875 281.925781 81.574219 281.925781 84.691406 Z M 281.925781 84.691406 " fill-opacity="1" fill-rule="nonzero"/><path fill="#6c68f9" d="M 281.925781 132.648438 L 281.925781 156.621094 C 281.925781 159.734375 279.398438 162.257812 276.285156 162.257812 L 248.824219 162.257812 C 245.710938 162.257812 243.1875 159.734375 243.1875 156.621094 L 243.1875 132.648438 C 243.1875 129.535156 245.710938 127.011719 248.824219 127.011719 L 276.285156 127.011719 C 279.398438 127.011719 281.925781 129.535156 281.925781 132.648438 Z M 281.925781 132.648438 " fill-opacity="1" fill-rule="nonzero"/><path fill="#6c68f9" d="M 281.925781 180.609375 L 281.925781 204.582031 C 281.925781 207.695312 279.398438 210.21875 276.285156 210.21875 L 248.824219 210.21875 C 245.710938 210.21875 243.1875 207.695312 243.1875 204.582031 L 243.1875 180.609375 C 243.1875 177.496094 245.710938 174.972656 248.824219 174.972656 L 276.285156 174.972656 C 279.398438 174.972656 281.925781 177.496094 281.925781 180.609375 Z M 281.925781 180.609375 " fill-opacity="1" fill-rule="nonzero"/><path fill="#ffffff" d="M 143.390625 210.214844 C 143.390625 213.359375 140.847656 215.902344 137.703125 215.902344 C 134.5625 215.902344 132.019531 213.359375 132.019531 210.214844 C 132.019531 207.074219 134.5625 204.527344 137.703125 204.527344 C 140.847656 204.527344 143.390625 207.074219 143.390625 210.214844 Z M 143.390625 210.214844 " fill-opacity="1" fill-rule="nonzero"/><path fill="#ffffff" d="M 138.632812 264.320312 C 165.324219 245.902344 160.195312 229.28125 160.195312 229.28125 L 189.550781 229.28125 C 189.550781 229.28125 184.425781 245.902344 211.113281 264.320312 Z M 138.632812 264.320312 " fill-opacity="1" fill-rule="nonzero"/><path fill="#6c68f9" d="M 144.480469 264.320312 L 138.636719 264.320312 C 165.324219 245.898438 160.195312 229.28125 160.195312 229.28125 L 166.046875 229.28125 C 166.046875 229.28125 171.171875 245.898438 144.480469 264.320312 Z M 144.480469 264.320312 " fill-opacity="1" fill-rule="nonzero"/><path fill="#ffffff" d="M 184.175781 131.890625 C 184.277344 132.949219 184.332031 134.007812 184.332031 135.070312 C 184.332031 136.132812 184.28125 137.195312 184.175781 138.25 C 184.074219 139.308594 183.917969 140.359375 183.710938 141.402344 C 183.503906 142.445312 183.246094 143.472656 182.941406 144.492188 C 182.632812 145.507812 182.273438 146.507812 181.867188 147.488281 C 181.460938 148.472656 181.007812 149.429688 180.507812 150.367188 C 180.007812 151.304688 179.464844 152.214844 178.875 153.101562 C 178.285156 153.984375 177.652344 154.835938 176.976562 155.660156 C 176.304688 156.480469 175.589844 157.269531 174.839844 158.019531 C 174.089844 158.773438 173.304688 159.484375 172.480469 160.160156 C 171.660156 160.835938 170.808594 161.46875 169.925781 162.058594 C 169.042969 162.648438 168.132812 163.195312 167.195312 163.695312 C 166.257812 164.199219 165.300781 164.652344 164.316406 165.058594 C 163.335938 165.464844 162.335938 165.824219 161.320312 166.132812 C 160.304688 166.441406 159.273438 166.699219 158.230469 166.910156 C 157.1875 167.117188 156.140625 167.273438 155.082031 167.378906 C 154.023438 167.484375 152.964844 167.535156 151.902344 167.535156 C 150.839844 167.535156 149.777344 167.484375 148.722656 167.382812 C 147.664062 167.277344 146.613281 167.121094 145.570312 166.914062 C 144.527344 166.707031 143.5 166.453125 142.480469 166.144531 C 141.464844 165.835938 140.464844 165.476562 139.484375 165.070312 C 138.5 164.664062 137.539062 164.210938 136.601562 163.710938 C 135.667969 163.210938 134.753906 162.667969 133.871094 162.078125 C 132.988281 161.488281 132.132812 160.855469 131.3125 160.179688 C 130.492188 159.507812 129.703125 158.792969 128.953125 158.042969 C 128.199219 157.292969 127.488281 156.507812 126.8125 155.683594 C 126.136719 154.863281 125.503906 154.011719 124.914062 153.128906 C 124.324219 152.246094 123.777344 151.335938 123.277344 150.398438 C 122.773438 149.460938 122.320312 148.503906 121.914062 147.519531 C 121.503906 146.539062 121.148438 145.539062 120.839844 144.523438 C 120.53125 143.507812 120.269531 142.476562 120.0625 141.433594 C 119.855469 140.390625 119.699219 139.34375 119.59375 138.285156 C 119.488281 137.226562 119.4375 136.167969 119.4375 135.105469 C 119.4375 134.042969 119.488281 132.980469 119.589844 131.925781 C 119.695312 130.867188 119.851562 129.816406 120.058594 128.773438 C 120.261719 127.730469 120.519531 126.703125 120.828125 125.683594 C 121.136719 124.667969 121.492188 123.667969 121.898438 122.6875 C 122.304688 121.703125 122.757812 120.746094 123.261719 119.808594 C 123.761719 118.871094 124.304688 117.957031 124.894531 117.074219 C 125.484375 116.191406 126.117188 115.339844 126.792969 114.515625 C 127.464844 113.695312 128.175781 112.90625 128.929688 112.15625 C 129.679688 111.402344 130.464844 110.691406 131.285156 110.015625 C 132.109375 109.339844 132.960938 108.707031 133.84375 108.117188 C 134.726562 107.527344 135.636719 106.980469 136.574219 106.480469 C 137.511719 105.976562 138.46875 105.523438 139.453125 105.117188 C 140.433594 104.710938 141.433594 104.351562 142.449219 104.042969 C 143.464844 103.734375 144.496094 103.472656 145.539062 103.265625 C 146.578125 103.058594 147.628906 102.902344 148.6875 102.796875 C 149.746094 102.691406 150.804688 102.640625 151.867188 102.640625 C 152.929688 102.640625 153.992188 102.691406 155.046875 102.792969 C 156.105469 102.898438 157.15625 103.054688 158.199219 103.261719 C 159.242188 103.464844 160.269531 103.722656 161.289062 104.03125 C 162.304688 104.339844 163.304688 104.695312 164.285156 105.101562 C 165.269531 105.507812 166.226562 105.960938 167.164062 106.464844 C 168.101562 106.964844 169.011719 107.507812 169.898438 108.097656 C 170.78125 108.6875 171.632812 109.320312 172.457031 109.996094 C 173.277344 110.667969 174.066406 111.378906 174.816406 112.132812 C 175.570312 112.882812 176.28125 113.667969 176.957031 114.488281 C 177.628906 115.3125 178.261719 116.164062 178.855469 117.046875 C 179.445312 117.929688 179.992188 118.839844 180.492188 119.777344 C 180.996094 120.714844 181.449219 121.671875 181.855469 122.65625 C 182.261719 123.636719 182.621094 124.636719 182.929688 125.652344 C 183.238281 126.667969 183.496094 127.699219 183.707031 128.742188 C 183.914062 129.78125 184.070312 130.832031 184.175781 131.890625 Z M 184.175781 131.890625 " fill-opacity="1" fill-rule="nonzero"/><path fill="#fede5a" d="M 122.550781 137.34375 C 122.550781 147.476562 127.199219 156.535156 134.488281 162.484375 C 125.4375 156.726562 119.4375 146.601562 119.4375 135.085938 C 119.4375 117.148438 133.945312 102.636719 151.886719 102.636719 C 159.675781 102.636719 166.824219 105.378906 172.414062 109.960938 C 167.378906 106.75 161.402344 104.894531 154.996094 104.894531 C 137.058594 104.894531 122.550781 119.402344 122.550781 137.34375 Z M 122.550781 137.34375 " fill-opacity="1" fill-rule="nonzero"/><path fill="#fede5a" d="M 162.453125 138.40625 L 151.8125 147.707031 C 148.957031 150.207031 144.484375 148.175781 144.484375 144.378906 L 144.484375 125.796875 C 144.484375 122.003906 148.953125 119.972656 151.8125 122.464844 L 162.449219 131.746094 C 164.46875 133.507812 164.46875 136.644531 162.453125 138.40625 Z M 162.453125 138.40625 " fill-opacity="1" fill-rule="nonzero"/><path fill="#ffffff" d="M 150.082031 148.644531 C 147.441406 149.378906 144.480469 147.460938 144.480469 144.378906 L 144.480469 125.796875 C 144.480469 122.710938 147.445312 120.789062 150.089844 121.523438 C 148.292969 122.019531 146.816406 123.613281 146.816406 125.796875 L 146.816406 144.378906 C 146.816406 146.550781 148.292969 148.15625 150.082031 148.644531 Z M 150.082031 148.644531 " fill-opacity="1" fill-rule="nonzero"/><path fill="#ffffff" d="M 266.929688 98.4375 L 261.273438 103.382812 C 259.753906 104.710938 257.378906 103.632812 257.378906 101.613281 L 257.378906 91.734375 C 257.378906 89.71875 259.753906 88.636719 261.273438 89.964844 L 266.929688 94.898438 C 268 95.832031 268.003906 97.5 266.929688 98.4375 Z M 266.929688 98.4375 " fill-opacity="1" fill-rule="nonzero"/><path fill="#ffffff" d="M 266.929688 146.398438 L 261.273438 151.34375 C 259.753906 152.671875 257.378906 151.59375 257.378906 149.574219 L 257.378906 139.695312 C 257.378906 137.679688 259.753906 136.597656 261.273438 137.925781 L 266.929688 142.859375 C 268 143.792969 268.003906 145.460938 266.929688 146.398438 Z M 266.929688 146.398438 " fill-opacity="1" fill-rule="nonzero"/><path fill="#ffffff" d="M 266.929688 194.359375 L 261.273438 199.304688 C 259.753906 200.632812 257.378906 199.554688 257.378906 197.535156 L 257.378906 187.65625 C 257.378906 185.640625 259.753906 184.5625 261.273438 185.886719 L 266.929688 190.820312 C 268 191.757812 268.003906 193.421875 266.929688 194.359375 Z M 266.929688 194.359375 " fill-opacity="1" fill-rule="nonzero"/><path fill="#6c68f9" d="M 260.746094 199.652344 C 259.265625 200.386719 257.378906 199.332031 257.378906 197.535156 L 257.378906 187.65625 C 257.378906 185.859375 259.265625 184.804688 260.746094 185.539062 C 259.988281 185.90625 259.421875 186.671875 259.421875 187.65625 L 259.421875 197.535156 C 259.421875 198.519531 259.988281 199.285156 260.746094 199.652344 Z M 260.746094 199.652344 " fill-opacity="1" fill-rule="nonzero"/><path fill="#6c68f9" d="M 260.746094 151.691406 C 259.265625 152.425781 257.378906 151.371094 257.378906 149.574219 L 257.378906 139.695312 C 257.378906 137.898438 259.265625 136.84375 260.746094 137.578125 C 259.988281 137.945312 259.421875 138.710938 259.421875 139.695312 L 259.421875 149.574219 C 259.421875 150.558594 259.988281 151.324219 260.746094 151.691406 Z M 260.746094 151.691406 " fill-opacity="1" fill-rule="nonzero"/><path fill="#6c68f9" d="M 260.746094 103.730469 C 259.265625 104.464844 257.378906 103.410156 257.378906 101.613281 L 257.378906 91.734375 C 257.378906 89.9375 259.265625 88.882812 260.746094 89.617188 C 259.988281 89.984375 259.421875 90.75 259.421875 91.734375 L 259.421875 101.613281 C 259.421875 102.597656 259.988281 103.363281 260.746094 103.730469 Z M 260.746094 103.730469 " fill-opacity="1" fill-rule="nonzero"/><path fill="#5046c3" d="M 283.199219 229.867188 L 74.734375 229.867188 C 64.6875 229.867188 56.515625 221.691406 56.515625 211.648438 L 56.515625 106.390625 C 56.515625 106.070312 56.777344 105.808594 57.097656 105.808594 C 57.421875 105.808594 57.683594 106.070312 57.683594 106.390625 L 57.683594 211.648438 C 57.683594 221.050781 65.332031 228.699219 74.734375 228.699219 L 283.199219 228.699219 C 292.601562 228.699219 300.253906 221.050781 300.253906 211.648438 L 300.253906 77.625 C 300.253906 68.21875 292.601562 60.570312 283.199219 60.570312 L 74.734375 60.570312 C 65.332031 60.570312 57.683594 68.21875 57.683594 77.625 L 57.683594 96.671875 C 57.683594 96.996094 57.421875 97.257812 57.101562 97.257812 C 56.777344 97.257812 56.515625 96.996094 56.515625 96.671875 L 56.515625 77.625 C 56.515625 67.578125 64.6875 59.402344 74.734375 59.402344 L 283.199219 59.402344 C 293.246094 59.402344 301.421875 67.578125 301.421875 77.625 L 301.421875 211.648438 C 301.421875 221.691406 293.246094 229.867188 283.199219 229.867188 Z M 283.199219 229.867188 " fill-opacity="1" fill-rule="nonzero"/><path fill="#5046c3" d="M 218.582031 191.710938 L 85.183594 191.710938 C 79.804688 191.710938 75.425781 187.332031 75.425781 181.953125 L 75.425781 88.222656 C 75.425781 82.84375 79.804688 78.464844 85.183594 78.464844 L 218.582031 78.464844 C 223.964844 78.464844 228.339844 82.84375 228.339844 88.222656 L 228.339844 181.953125 C 228.339844 187.332031 223.964844 191.710938 218.582031 191.710938 Z M 85.183594 79.632812 C 80.449219 79.632812 76.59375 83.488281 76.59375 88.222656 L 76.59375 181.953125 C 76.59375 186.6875 80.449219 190.542969 85.183594 190.542969 L 218.582031 190.542969 C 223.320312 190.542969 227.175781 186.6875 227.175781 181.953125 L 227.175781 88.222656 C 227.175781 83.488281 223.320312 79.632812 218.582031 79.632812 Z M 85.183594 79.632812 " fill-opacity="1" fill-rule="nonzero"/><path fill="#5046c3" d="M 276.285156 114.878906 L 248.824219 114.878906 C 245.394531 114.878906 242.605469 112.089844 242.605469 108.660156 L 242.605469 84.6875 C 242.605469 81.257812 245.394531 78.464844 248.824219 78.464844 L 276.285156 78.464844 C 279.714844 78.464844 282.507812 81.257812 282.507812 84.6875 L 282.507812 108.660156 C 282.507812 112.089844 279.714844 114.878906 276.285156 114.878906 Z M 248.824219 79.632812 C 246.039062 79.632812 243.769531 81.902344 243.769531 84.6875 L 243.769531 108.660156 C 243.769531 111.445312 246.039062 113.714844 248.824219 113.714844 L 276.285156 113.714844 C 279.074219 113.714844 281.339844 111.445312 281.339844 108.660156 L 281.339844 84.6875 C 281.339844 81.902344 279.074219 79.632812 276.285156 79.632812 Z M 248.824219 79.632812 " fill-opacity="1" fill-rule="nonzero"/><path fill="#ffffff" d="M 281.925781 132.652344 L 281.925781 135.394531 C 281.925781 132.285156 279.402344 129.757812 276.285156 129.757812 L 248.824219 129.757812 C 245.710938 129.757812 243.191406 132.285156 243.191406 135.394531 L 243.191406 132.652344 C 243.191406 129.539062 245.710938 127.011719 248.824219 127.011719 L 276.285156 127.011719 C 279.402344 127.011719 281.925781 129.539062 281.925781 132.652344 Z M 281.925781 132.652344 " fill-opacity="1" fill-rule="nonzero"/><path fill="#5046c3" d="M 276.285156 162.84375 L 248.824219 162.84375 C 245.394531 162.84375 242.605469 160.050781 242.605469 156.621094 L 242.605469 132.648438 C 242.605469 129.21875 245.394531 126.429688 248.824219 126.429688 L 276.285156 126.429688 C 279.714844 126.429688 282.507812 129.21875 282.507812 132.648438 L 282.507812 156.621094 C 282.507812 160.050781 279.714844 162.84375 276.285156 162.84375 Z M 248.824219 127.59375 C 246.039062 127.59375 243.769531 129.863281 243.769531 132.648438 L 243.769531 156.621094 C 243.769531 159.40625 246.039062 161.675781 248.824219 161.675781 L 276.285156 161.675781 C 279.074219 161.675781 281.339844 159.40625 281.339844 156.621094 L 281.339844 132.648438 C 281.339844 129.863281 279.074219 127.59375 276.285156 127.59375 Z M 248.824219 127.59375 " fill-opacity="1" fill-rule="nonzero"/><path fill="#ffffff" d="M 281.925781 180.617188 L 281.925781 183.359375 C 281.925781 180.246094 279.402344 177.722656 276.285156 177.722656 L 248.824219 177.722656 C 245.710938 177.722656 243.191406 180.246094 243.191406 183.359375 L 243.191406 180.617188 C 243.191406 177.5 245.710938 174.972656 248.824219 174.972656 L 276.285156 174.972656 C 279.402344 174.972656 281.925781 177.5 281.925781 180.617188 Z M 281.925781 180.617188 " fill-opacity="1" fill-rule="nonzero"/><path fill="#5046c3" d="M 276.285156 210.804688 L 248.824219 210.804688 C 245.394531 210.804688 242.605469 208.011719 242.605469 204.582031 L 242.605469 180.609375 C 242.605469 177.179688 245.394531 174.390625 248.824219 174.390625 L 276.285156 174.390625 C 279.714844 174.390625 282.507812 177.179688 282.507812 180.609375 L 282.507812 204.582031 C 282.507812 208.011719 279.714844 210.804688 276.285156 210.804688 Z M 248.824219 175.554688 C 246.039062 175.554688 243.769531 177.824219 243.769531 180.609375 L 243.769531 204.582031 C 243.769531 207.371094 246.039062 209.636719 248.824219 209.636719 L 276.285156 209.636719 C 279.074219 209.636719 281.339844 207.371094 281.339844 204.582031 L 281.339844 180.609375 C 281.339844 177.824219 279.074219 175.554688 276.285156 175.554688 Z M 248.824219 175.554688 " fill-opacity="1" fill-rule="nonzero"/><path fill="#5046c3" d="M 214.296875 210.804688 L 110.710938 210.804688 C 110.390625 210.804688 110.128906 210.542969 110.128906 210.21875 C 110.128906 209.898438 110.390625 209.636719 110.710938 209.636719 L 214.296875 209.636719 C 214.621094 209.636719 214.878906 209.898438 214.878906 210.21875 C 214.878906 210.542969 214.621094 210.804688 214.296875 210.804688 Z M 214.296875 210.804688 " fill-opacity="1" fill-rule="nonzero"/><path fill="#5046c3" d="M 80.949219 217.125 C 80.625 217.125 80.363281 216.867188 80.363281 216.542969 L 80.363281 202.3125 C 80.363281 201.992188 80.625 201.730469 80.949219 201.730469 C 81.269531 201.730469 81.53125 201.992188 81.53125 202.3125 L 81.53125 216.542969 C 81.53125 216.867188 81.269531 217.125 80.949219 217.125 Z M 80.949219 217.125 " fill-opacity="1" fill-rule="nonzero"/><path fill="#5046c3" d="M 93.582031 217.125 C 93.257812 217.125 93 216.867188 93 216.542969 L 93 202.3125 C 93 201.992188 93.257812 201.730469 93.582031 201.730469 C 93.902344 201.730469 94.164062 201.992188 94.164062 202.3125 L 94.164062 216.542969 C 94.164062 216.867188 93.902344 217.125 93.582031 217.125 Z M 93.582031 217.125 " fill-opacity="1" fill-rule="nonzero"/><path fill="#6c68f9" d="M 143.390625 210.214844 C 143.390625 213.359375 140.847656 215.902344 137.703125 215.902344 C 134.5625 215.902344 132.019531 213.359375 132.019531 210.214844 C 132.019531 207.074219 134.5625 204.527344 137.703125 204.527344 C 140.847656 204.527344 143.390625 207.074219 143.390625 210.214844 Z M 143.390625 210.214844 " fill-opacity="1" fill-rule="nonzero"/><path fill="#ffffff" d="M 142.773438 207.628906 C 141.726562 206.402344 140.171875 205.621094 138.433594 205.621094 C 135.292969 205.621094 132.75 208.167969 132.75 211.3125 C 132.75 212.238281 132.96875 213.121094 133.367188 213.894531 C 132.527344 212.898438 132.019531 211.613281 132.019531 210.214844 C 132.019531 207.074219 134.5625 204.53125 137.703125 204.53125 C 139.914062 204.53125 141.832031 205.792969 142.773438 207.628906 Z M 142.773438 207.628906 " fill-opacity="1" fill-rule="nonzero"/><path fill="#5046c3" d="M 137.703125 216.484375 C 134.246094 216.484375 131.433594 213.671875 131.433594 210.214844 C 131.433594 206.757812 134.246094 203.945312 137.703125 203.945312 C 141.160156 203.945312 143.972656 206.757812 143.972656 210.214844 C 143.972656 213.671875 141.160156 216.484375 137.703125 216.484375 Z M 137.703125 205.113281 C 134.890625 205.113281 132.601562 207.402344 132.601562 210.214844 C 132.601562 213.03125 134.890625 215.320312 137.703125 215.320312 C 140.519531 215.320312 142.804688 213.03125 142.804688 210.214844 C 142.804688 207.402344 140.519531 205.113281 137.703125 205.113281 Z M 137.703125 205.113281 " fill-opacity="1" fill-rule="nonzero"/><path fill="#5046c3" d="M 211.113281 264.902344 L 138.632812 264.902344 C 138.378906 264.902344 138.152344 264.738281 138.078125 264.492188 C 138 264.25 138.09375 263.984375 138.304688 263.839844 C 164.273438 245.917969 159.6875 229.617188 159.640625 229.453125 C 159.585938 229.277344 159.617188 229.085938 159.730469 228.9375 C 159.839844 228.789062 160.011719 228.699219 160.195312 228.699219 L 189.550781 228.699219 C 189.738281 228.699219 189.910156 228.789062 190.023438 228.9375 C 190.132812 229.085938 190.164062 229.277344 190.109375 229.453125 C 190.0625 229.617188 185.476562 245.917969 211.445312 263.839844 C 211.65625 263.984375 211.746094 264.25 211.671875 264.492188 C 211.597656 264.738281 211.371094 264.902344 211.113281 264.902344 Z M 140.476562 263.738281 L 209.273438 263.738281 C 186.976562 247.695312 188.140625 233.308594 188.8125 229.867188 L 160.933594 229.867188 C 161.609375 233.308594 162.773438 247.695312 140.476562 263.738281 Z M 140.476562 263.738281 " fill-opacity="1" fill-rule="nonzero"/><path fill="#5046c3" d="M 151.882812 168.121094 C 133.671875 168.121094 118.851562 153.300781 118.851562 135.089844 C 118.851562 128.238281 120.925781 121.671875 124.84375 116.097656 C 125.027344 115.835938 125.394531 115.769531 125.65625 115.957031 C 125.921875 116.140625 125.984375 116.503906 125.796875 116.769531 C 122.019531 122.144531 120.019531 128.480469 120.019531 135.089844 C 120.019531 152.660156 134.316406 166.953125 151.882812 166.953125 C 169.453125 166.953125 183.75 152.660156 183.75 135.089844 C 183.75 117.515625 169.453125 103.222656 151.882812 103.222656 C 144.371094 103.222656 137.078125 105.882812 131.347656 110.710938 C 131.101562 110.917969 130.734375 110.886719 130.527344 110.640625 C 130.320312 110.394531 130.351562 110.023438 130.597656 109.816406 C 136.535156 104.8125 144.09375 102.054688 151.882812 102.054688 C 170.097656 102.054688 184.914062 116.875 184.914062 135.089844 C 184.914062 153.300781 170.097656 168.121094 151.882812 168.121094 Z M 151.882812 168.121094 " fill-opacity="1" fill-rule="nonzero"/><path fill="#5046c3" d="M 148.921875 149.390625 C 148.21875 149.390625 147.511719 149.242188 146.835938 148.933594 C 145.027344 148.113281 143.902344 146.367188 143.902344 144.378906 L 143.902344 125.796875 C 143.902344 123.808594 145.023438 122.066406 146.835938 121.242188 C 148.644531 120.417969 150.695312 120.71875 152.195312 122.027344 L 162.835938 131.308594 C 163.921875 132.257812 164.546875 133.628906 164.546875 135.074219 C 164.550781 136.519531 163.925781 137.894531 162.839844 138.84375 L 152.199219 148.144531 C 151.257812 148.964844 150.101562 149.390625 148.921875 149.390625 Z M 148.917969 121.953125 C 148.378906 121.953125 147.835938 122.070312 147.316406 122.304688 C 145.929688 122.933594 145.070312 124.273438 145.070312 125.796875 L 145.070312 144.378906 C 145.070312 145.902344 145.929688 147.242188 147.320312 147.871094 C 148.707031 148.503906 150.28125 148.269531 151.429688 147.269531 L 162.070312 137.964844 C 162.90625 137.238281 163.382812 136.183594 163.382812 135.074219 C 163.382812 133.96875 162.902344 132.914062 162.066406 132.1875 L 151.425781 122.90625 C 150.707031 122.277344 149.820312 121.953125 148.917969 121.953125 Z M 162.453125 138.40625 L 162.460938 138.40625 Z M 162.453125 138.40625 " fill-opacity="1" fill-rule="nonzero"/><path fill="#5046c3" d="M 259.738281 104.550781 C 259.324219 104.550781 258.910156 104.464844 258.515625 104.285156 C 257.453125 103.800781 256.792969 102.777344 256.792969 101.613281 L 256.792969 91.734375 C 256.792969 90.570312 257.453125 89.546875 258.511719 89.0625 C 259.574219 88.582031 260.777344 88.757812 261.65625 89.523438 L 267.3125 94.457031 C 267.949219 95.015625 268.316406 95.820312 268.316406 96.667969 C 268.316406 97.511719 267.953125 98.320312 267.3125 98.875 L 261.65625 103.820312 C 261.105469 104.300781 260.429688 104.550781 259.738281 104.550781 Z M 259.742188 89.960938 C 259.492188 89.960938 259.238281 90.015625 258.996094 90.125 C 258.347656 90.421875 257.960938 91.023438 257.960938 91.734375 L 257.960938 101.613281 C 257.960938 102.324219 258.347656 102.925781 258.996094 103.222656 C 259.644531 103.515625 260.351562 103.410156 260.890625 102.941406 L 266.546875 97.996094 C 266.929688 97.664062 267.152344 97.175781 267.148438 96.667969 C 267.148438 96.15625 266.929688 95.671875 266.542969 95.335938 L 260.886719 90.402344 C 260.554688 90.113281 260.152344 89.960938 259.742188 89.960938 Z M 259.742188 89.960938 " fill-opacity="1" fill-rule="nonzero"/><path fill="#5046c3" d="M 259.738281 152.511719 C 259.324219 152.511719 258.910156 152.425781 258.515625 152.246094 C 257.453125 151.761719 256.792969 150.738281 256.792969 149.574219 L 256.792969 139.695312 C 256.792969 138.53125 257.453125 137.507812 258.511719 137.027344 C 259.574219 136.542969 260.777344 136.71875 261.65625 137.484375 L 267.3125 142.417969 C 267.949219 142.976562 268.316406 143.78125 268.316406 144.628906 C 268.316406 145.476562 267.953125 146.28125 267.3125 146.839844 L 261.65625 151.78125 C 261.105469 152.261719 260.429688 152.511719 259.738281 152.511719 Z M 259.742188 137.921875 C 259.492188 137.921875 259.238281 137.976562 258.996094 138.089844 C 258.347656 138.382812 257.960938 138.984375 257.960938 139.695312 L 257.960938 149.574219 C 257.960938 150.285156 258.347656 150.886719 258.996094 151.183594 C 259.644531 151.476562 260.351562 151.371094 260.890625 150.902344 L 266.546875 145.960938 C 266.929688 145.625 267.152344 145.140625 267.148438 144.628906 C 267.148438 144.117188 266.929688 143.632812 266.542969 143.296875 L 260.886719 138.363281 C 260.554688 138.074219 260.152344 137.921875 259.742188 137.921875 Z M 259.742188 137.921875 " fill-opacity="1" fill-rule="nonzero"/><path fill="#5046c3" d="M 259.738281 200.472656 C 259.324219 200.472656 258.910156 200.386719 258.515625 200.207031 C 257.453125 199.722656 256.792969 198.699219 256.792969 197.535156 L 256.792969 187.65625 C 256.792969 186.492188 257.453125 185.46875 258.511719 184.988281 C 259.574219 184.503906 260.777344 184.679688 261.65625 185.445312 L 267.3125 190.378906 C 267.949219 190.9375 268.316406 191.742188 268.316406 192.589844 C 268.316406 193.4375 267.953125 194.242188 267.3125 194.800781 L 261.65625 199.742188 C 261.105469 200.226562 260.429688 200.472656 259.738281 200.472656 Z M 259.742188 185.882812 C 259.492188 185.882812 259.238281 185.9375 258.996094 186.050781 C 258.347656 186.34375 257.960938 186.945312 257.960938 187.65625 L 257.960938 197.535156 C 257.960938 198.246094 258.347656 198.847656 258.996094 199.144531 C 259.644531 199.4375 260.351562 199.335938 260.890625 198.867188 L 266.546875 193.921875 C 266.929688 193.585938 267.152344 193.101562 267.148438 192.589844 C 267.148438 192.082031 266.929688 191.59375 266.542969 191.261719 L 260.886719 186.324219 C 260.554688 186.035156 260.152344 185.882812 259.742188 185.882812 Z M 259.742188 185.882812 " fill-opacity="1" fill-rule="nonzero"/><g clip-path="url(#0660f5a7ac)"><path fill="#fede5a" d="M 161.328125 301.457031 L 238.964844 301.457031 C 244.101562 301.457031 248.742188 303.535156 252.089844 306.898438 C 255.457031 310.25 257.535156 314.902344 257.535156 320.027344 C 257.535156 330.289062 249.226562 338.59375 238.964844 338.59375 L 161.328125 338.59375 Z M 161.328125 301.457031 " fill-opacity="1" fill-rule="nonzero"/></g><g clip-path="url(#0a45bb8dd8)"><path fill="#5046c3" d="M 238.964844 339.179688 L 161.328125 339.179688 C 161.007812 339.179688 160.746094 338.917969 160.746094 338.59375 L 160.746094 301.457031 C 160.746094 301.136719 161.007812 300.875 161.328125 300.875 L 238.964844 300.875 C 244.09375 300.875 248.902344 302.867188 252.503906 306.488281 C 256.125 310.089844 258.117188 314.898438 258.117188 320.027344 C 258.117188 330.585938 249.523438 339.179688 238.964844 339.179688 Z M 161.914062 338.011719 L 238.964844 338.011719 C 248.882812 338.011719 256.949219 329.941406 256.949219 320.027344 C 256.949219 315.210938 255.078125 310.695312 251.679688 307.3125 C 248.296875 303.914062 243.78125 302.042969 238.964844 302.042969 L 161.914062 302.042969 Z M 161.914062 338.011719 " fill-opacity="1" fill-rule="nonzero"/></g><g clip-path="url(#260483788e)"><path fill="#ffffff" d="M 81.457031 301.457031 C 87.578125 313.316406 88.804688 325.59375 81.457031 338.59375 L 169.289062 338.59375 C 179.550781 338.59375 187.855469 330.289062 187.855469 320.027344 C 187.855469 314.902344 185.78125 310.25 182.414062 306.898438 C 179.0625 303.535156 174.425781 301.457031 169.289062 301.457031 Z M 81.457031 301.457031 " fill-opacity="1" fill-rule="nonzero"/></g><g clip-path="url(#f32e6d78ce)"><path fill="#5046c3" d="M 169.289062 339.179688 L 129.414062 339.179688 C 129.09375 339.179688 128.832031 338.917969 128.832031 338.59375 C 128.832031 338.273438 129.09375 338.011719 129.414062 338.011719 L 169.289062 338.011719 C 179.203125 338.011719 187.273438 329.941406 187.273438 320.027344 C 187.273438 315.210938 185.402344 310.695312 182.003906 307.3125 C 178.617188 303.914062 174.101562 302.042969 169.289062 302.042969 L 82.40625 302.042969 C 88.65625 314.652344 88.667969 326.4375 82.445312 338.011719 L 116.175781 338.011719 C 116.5 338.011719 116.761719 338.273438 116.761719 338.59375 C 116.761719 338.917969 116.5 339.179688 116.175781 339.179688 L 81.457031 339.179688 C 81.25 339.179688 81.058594 339.066406 80.953125 338.890625 C 80.847656 338.710938 80.847656 338.488281 80.949219 338.308594 C 87.585938 326.5625 87.582031 314.597656 80.9375 301.726562 C 80.84375 301.542969 80.851562 301.328125 80.957031 301.152344 C 81.0625 300.980469 81.253906 300.875 81.457031 300.875 L 169.289062 300.875 C 174.414062 300.875 179.222656 302.867188 182.828125 306.488281 C 186.445312 310.089844 188.441406 314.898438 188.441406 320.027344 C 188.441406 330.585938 179.847656 339.179688 169.289062 339.179688 Z M 169.289062 339.179688 " fill-opacity="1" fill-rule="nonzero"/></g><path fill="#5046c3" d="M 172.320312 321.367188 L 86.507812 321.367188 C 86.1875 321.367188 85.925781 321.105469 85.925781 320.78125 C 85.925781 320.460938 86.1875 320.199219 86.507812 320.199219 L 172.320312 320.199219 C 172.640625 320.199219 172.902344 320.460938 172.902344 320.78125 C 172.902344 321.105469 172.640625 321.367188 172.320312 321.367188 Z M 172.320312 321.367188 " fill-opacity="1" fill-rule="nonzero"/><path fill="#5046c3" d="M 81.457031 302.042969 L 76.402344 302.042969 C 76.082031 302.042969 75.820312 301.78125 75.820312 301.457031 C 75.820312 301.136719 76.082031 300.875 76.402344 300.875 L 81.457031 300.875 C 81.777344 300.875 82.039062 301.136719 82.039062 301.457031 C 82.039062 301.78125 81.777344 302.042969 81.457031 302.042969 Z M 81.457031 302.042969 " fill-opacity="1" fill-rule="nonzero"/><g clip-path="url(#c15bebff2a)"><path fill="#5046c3" d="M 81.457031 339.179688 L 76.402344 339.179688 C 76.082031 339.179688 75.820312 338.917969 75.820312 338.59375 C 75.820312 338.273438 76.082031 338.011719 76.402344 338.011719 L 81.457031 338.011719 C 81.777344 338.011719 82.039062 338.273438 82.039062 338.59375 C 82.039062 338.917969 81.777344 339.179688 81.457031 339.179688 Z M 81.457031 339.179688 " fill-opacity="1" fill-rule="nonzero"/></g><path fill="#ffffff" d="M 243.699219 314.578125 L 225.40625 314.578125 C 225.082031 314.578125 224.820312 314.320312 224.820312 313.996094 C 224.820312 313.675781 225.082031 313.414062 225.40625 313.414062 L 243.699219 313.414062 C 244.019531 313.414062 244.28125 313.675781 244.28125 313.996094 C 244.28125 314.320312 244.019531 314.578125 243.699219 314.578125 Z M 243.699219 314.578125 " fill-opacity="1" fill-rule="nonzero"/><path fill="#ffffff" d="M 243.699219 320.609375 L 225.40625 320.609375 C 225.082031 320.609375 224.820312 320.347656 224.820312 320.027344 C 224.820312 319.703125 225.082031 319.441406 225.40625 319.441406 L 243.699219 319.441406 C 244.019531 319.441406 244.28125 319.703125 244.28125 320.027344 C 244.28125 320.347656 244.019531 320.609375 243.699219 320.609375 Z M 243.699219 320.609375 " fill-opacity="1" fill-rule="nonzero"/><path fill="#ffffff" d="M 243.699219 326.640625 L 235.296875 326.640625 C 234.976562 326.640625 234.714844 326.378906 234.714844 326.054688 C 234.714844 325.734375 234.976562 325.472656 235.296875 325.472656 L 243.699219 325.472656 C 244.019531 325.472656 244.28125 325.734375 244.28125 326.054688 C 244.28125 326.378906 244.019531 326.640625 243.699219 326.640625 Z M 243.699219 326.640625 " fill-opacity="1" fill-rule="nonzero"/><path fill="#6c68f9" d="M 196.605469 264.320312 L 118.96875 264.320312 C 113.832031 264.320312 109.195312 266.398438 105.84375 269.761719 C 102.480469 273.113281 100.402344 277.765625 100.402344 282.890625 C 100.402344 293.152344 108.707031 301.457031 118.96875 301.457031 L 196.605469 301.457031 Z M 196.605469 264.320312 " fill-opacity="1" fill-rule="nonzero"/><path fill="#5046c3" d="M 196.605469 302.042969 L 118.96875 302.042969 C 108.410156 302.042969 99.820312 293.449219 99.820312 282.890625 C 99.820312 277.761719 101.8125 272.953125 105.433594 269.347656 C 109.035156 265.730469 113.84375 263.738281 118.96875 263.738281 L 196.605469 263.738281 C 196.929688 263.738281 197.191406 264 197.191406 264.320312 L 197.191406 301.457031 C 197.191406 301.78125 196.929688 302.042969 196.605469 302.042969 Z M 118.96875 264.902344 C 114.15625 264.902344 109.640625 266.773438 106.257812 270.175781 C 102.855469 273.558594 100.984375 278.074219 100.984375 282.890625 C 100.984375 292.804688 109.054688 300.875 118.96875 300.875 L 196.023438 300.875 L 196.023438 264.902344 Z M 118.96875 264.902344 " fill-opacity="1" fill-rule="nonzero"/><path fill="#ffffff" d="M 276.480469 264.320312 C 270.355469 276.179688 269.128906 288.457031 276.480469 301.457031 L 188.648438 301.457031 C 178.386719 301.457031 170.078125 293.152344 170.078125 282.890625 C 170.078125 277.765625 172.15625 273.113281 175.519531 269.761719 C 178.871094 266.398438 183.507812 264.320312 188.648438 264.320312 Z M 276.480469 264.320312 " fill-opacity="1" fill-rule="nonzero"/><path fill="#5046c3" d="M 276.480469 302.042969 L 188.648438 302.042969 C 178.085938 302.042969 169.496094 293.449219 169.496094 282.890625 C 169.496094 277.761719 171.488281 272.953125 175.109375 269.347656 C 178.710938 265.730469 183.519531 263.738281 188.648438 263.738281 L 276.480469 263.738281 C 276.683594 263.738281 276.871094 263.84375 276.976562 264.015625 C 277.082031 264.191406 277.089844 264.40625 276.996094 264.585938 C 270.351562 277.460938 270.347656 289.425781 276.988281 301.171875 C 277.089844 301.351562 277.085938 301.574219 276.984375 301.75 C 276.878906 301.929688 276.6875 302.042969 276.480469 302.042969 Z M 188.648438 264.902344 C 183.832031 264.902344 179.316406 266.773438 175.933594 270.175781 C 172.535156 273.558594 170.664062 278.074219 170.664062 282.890625 C 170.664062 292.804688 178.730469 300.875 188.648438 300.875 L 275.492188 300.875 C 269.265625 289.300781 269.28125 277.515625 275.53125 264.902344 Z M 188.648438 264.902344 " fill-opacity="1" fill-rule="nonzero"/><path fill="#5046c3" d="M 221.230469 316.488281 L 210.457031 306.503906 L 199.6875 316.488281 L 199.6875 283.644531 L 221.230469 283.644531 Z M 221.230469 316.488281 " fill-opacity="1" fill-rule="nonzero"/><path fill="#5046c3" d="M 271.425781 284.226562 L 185.617188 284.226562 C 185.292969 284.226562 185.03125 283.96875 185.03125 283.644531 C 185.03125 283.324219 185.292969 283.0625 185.617188 283.0625 L 271.425781 283.0625 C 271.75 283.0625 272.011719 283.324219 272.011719 283.644531 C 272.011719 283.96875 271.75 284.226562 271.425781 284.226562 Z M 271.425781 284.226562 " fill-opacity="1" fill-rule="nonzero"/><path fill="#5046c3" d="M 281.53125 264.902344 L 276.480469 264.902344 C 276.15625 264.902344 275.894531 264.640625 275.894531 264.320312 C 275.894531 264 276.15625 263.738281 276.480469 263.738281 L 281.53125 263.738281 C 281.855469 263.738281 282.117188 264 282.117188 264.320312 C 282.117188 264.640625 281.855469 264.902344 281.53125 264.902344 Z M 281.53125 264.902344 " fill-opacity="1" fill-rule="nonzero"/><path fill="#5046c3" d="M 281.53125 302.042969 L 276.480469 302.042969 C 276.15625 302.042969 275.894531 301.78125 275.894531 301.457031 C 275.894531 301.136719 276.15625 300.875 276.480469 300.875 L 281.53125 300.875 C 281.855469 300.875 282.117188 301.136719 282.117188 301.457031 C 282.117188 301.78125 281.855469 302.042969 281.53125 302.042969 Z M 281.53125 302.042969 " fill-opacity="1" fill-rule="nonzero"/><path fill="#ffffff" d="M 132.53125 277.441406 L 114.238281 277.441406 C 113.914062 277.441406 113.652344 277.179688 113.652344 276.859375 C 113.652344 276.535156 113.914062 276.277344 114.238281 276.277344 L 132.53125 276.277344 C 132.851562 276.277344 133.113281 276.535156 133.113281 276.859375 C 133.113281 277.179688 132.851562 277.441406 132.53125 277.441406 Z M 132.53125 277.441406 " fill-opacity="1" fill-rule="nonzero"/><path fill="#ffffff" d="M 132.53125 283.472656 L 114.238281 283.472656 C 113.914062 283.472656 113.652344 283.210938 113.652344 282.890625 C 113.652344 282.566406 113.914062 282.304688 114.238281 282.304688 L 132.53125 282.304688 C 132.851562 282.304688 133.113281 282.566406 133.113281 282.890625 C 133.113281 283.210938 132.851562 283.472656 132.53125 283.472656 Z M 132.53125 283.472656 " fill-opacity="1" fill-rule="nonzero"/><path fill="#ffffff" d="M 122.640625 289.503906 L 114.238281 289.503906 C 113.914062 289.503906 113.652344 289.242188 113.652344 288.917969 C 113.652344 288.597656 113.914062 288.335938 114.238281 288.335938 L 122.640625 288.335938 C 122.960938 288.335938 123.222656 288.597656 123.222656 288.917969 C 123.222656 289.242188 122.960938 289.503906 122.640625 289.503906 Z M 122.640625 289.503906 " fill-opacity="1" fill-rule="nonzero"/><path fill="#5046c3" d="M 160.535156 234.269531 L 189.210938 234.269531 C 188.984375 231.128906 189.550781 229.28125 189.550781 229.28125 L 160.195312 229.28125 C 160.195312 229.28125 160.765625 231.128906 160.535156 234.269531 Z M 160.535156 234.269531 " fill-opacity="1" fill-rule="nonzero"/><path fill="#5046c3" d="M 189.210938 234.855469 L 160.535156 234.855469 C 160.375 234.855469 160.21875 234.785156 160.109375 234.667969 C 160 234.550781 159.941406 234.390625 159.953125 234.230469 C 160.171875 231.253906 159.644531 229.472656 159.640625 229.453125 C 159.585938 229.277344 159.617188 229.082031 159.730469 228.9375 C 159.839844 228.789062 160.011719 228.699219 160.195312 228.699219 L 189.550781 228.699219 C 189.738281 228.699219 189.910156 228.785156 190.023438 228.9375 C 190.132812 229.085938 190.164062 229.277344 190.109375 229.453125 C 190.105469 229.472656 189.578125 231.253906 189.792969 234.230469 C 189.804688 234.390625 189.75 234.550781 189.640625 234.667969 C 189.53125 234.785156 189.375 234.855469 189.210938 234.855469 Z M 161.15625 233.6875 L 188.59375 233.6875 C 188.519531 231.933594 188.679688 230.625 188.820312 229.867188 L 160.925781 229.867188 C 161.066406 230.625 161.230469 231.933594 161.15625 233.6875 Z M 161.15625 233.6875 " fill-opacity="1" fill-rule="nonzero"/><path fill="#ffffff" d="M 104.78125 79.695312 C 105.246094 82.007812 103.488281 84.144531 101.136719 84.265625 C 96.144531 84.5 87.792969 86.136719 83.457031 93.75 C 82.480469 95.46875 80.511719 96.234375 78.628906 95.625 C 70.3125 92.921875 63.054688 97.34375 59.214844 100.535156 C 57.363281 102.046875 54.582031 101.542969 53.367188 99.480469 C 48.902344 91.921875 48.339844 81.183594 48.484375 74.746094 L 72.6875 75.058594 C 73.648438 75.101562 74.554688 74.710938 75.25 74.066406 L 91.8125 58.15625 C 96.265625 62.867188 103.035156 71.15625 104.78125 79.695312 Z M 104.78125 79.695312 " fill-opacity="1" fill-rule="nonzero"/><path fill="#fede5a" d="M 59.476562 100.324219 C 59.390625 100.394531 59.300781 100.460938 59.21875 100.535156 C 57.367188 102.046875 54.578125 101.542969 53.363281 99.480469 C 48.902344 91.921875 48.34375 81.183594 48.484375 74.746094 L 51.683594 74.785156 C 51.632812 81.296875 52.359375 91.285156 56.582031 98.429688 C 57.226562 99.527344 58.320312 100.183594 59.476562 100.324219 Z M 59.476562 100.324219 " fill-opacity="1" fill-rule="nonzero"/><path fill="#5046c3" d="M 56.753906 101.992188 C 56.488281 101.992188 56.222656 101.96875 55.957031 101.921875 C 54.660156 101.691406 53.53125 100.910156 52.863281 99.777344 C 48.234375 91.9375 47.769531 80.722656 47.902344 74.730469 C 47.910156 74.414062 48.160156 74.183594 48.492188 74.160156 L 72.695312 74.476562 C 73.476562 74.511719 74.234375 74.214844 74.851562 73.636719 L 91.40625 57.734375 C 91.519531 57.625 91.675781 57.566406 91.828125 57.570312 C 91.980469 57.574219 92.128906 57.640625 92.234375 57.753906 C 97.273438 63.082031 103.636719 71.195312 105.351562 79.578125 C 105.601562 80.820312 105.296875 82.105469 104.515625 83.105469 C 103.707031 84.144531 102.488281 84.777344 101.164062 84.847656 C 96.570312 85.0625 88.230469 86.546875 83.964844 94.039062 C 82.855469 95.992188 80.585938 96.871094 78.449219 96.179688 C 70.265625 93.523438 63.121094 98.050781 59.585938 100.984375 C 58.78125 101.644531 57.78125 101.992188 56.753906 101.992188 Z M 49.058594 75.335938 C 48.96875 81.320312 49.53125 91.835938 53.867188 99.183594 C 54.363281 100.023438 55.199219 100.601562 56.164062 100.773438 C 57.121094 100.945312 58.097656 100.691406 58.84375 100.082031 C 62.558594 97 70.097656 92.238281 78.8125 95.066406 C 80.441406 95.597656 82.101562 94.953125 82.949219 93.460938 C 87.492188 85.484375 96.277344 83.910156 101.105469 83.679688 C 102.089844 83.632812 102.996094 83.160156 103.59375 82.390625 C 104.175781 81.644531 104.394531 80.730469 104.210938 79.8125 C 102.59375 71.917969 96.65625 64.203125 91.792969 58.984375 L 75.652344 74.484375 C 74.800781 75.28125 73.738281 75.6875 72.660156 75.640625 Z M 49.058594 75.335938 " fill-opacity="1" fill-rule="nonzero"/><path fill="#ffffff" d="M 102.828125 47.546875 L 75.242188 74.074219 C 74.554688 74.710938 73.636719 75.097656 72.691406 75.066406 L 33.480469 74.566406 C 30.257812 74.515625 28.695312 70.582031 31.070312 68.359375 L 59.609375 41.363281 C 60.285156 40.699219 61.226562 40.367188 62.160156 40.371094 L 100.417969 41.339844 C 103.625 41.429688 105.136719 45.316406 102.828125 47.546875 Z M 102.828125 47.546875 " fill-opacity="1" fill-rule="nonzero"/><path fill="#fede5a" d="M 65.242188 40.546875 C 64.304688 40.542969 63.363281 40.871094 62.6875 41.53125 L 34.152344 68.53125 C 32.03125 70.515625 33.046875 73.859375 35.574219 74.59375 L 33.480469 74.566406 C 30.261719 74.515625 28.695312 70.582031 31.070312 68.359375 L 59.605469 41.359375 C 60.285156 40.695312 61.226562 40.367188 62.160156 40.375 Z M 65.242188 40.546875 " fill-opacity="1" fill-rule="nonzero"/><path fill="#ffffff" d="M 73.324219 55.429688 C 73.390625 55.605469 73.417969 55.792969 73.402344 55.996094 C 73.386719 56.199219 73.328125 56.414062 73.230469 56.636719 C 73.132812 56.859375 72.992188 57.089844 72.816406 57.324219 C 72.640625 57.5625 72.425781 57.800781 72.175781 58.039062 C 71.925781 58.277344 71.644531 58.511719 71.332031 58.746094 C 71.023438 58.976562 70.683594 59.203125 70.320312 59.421875 C 69.957031 59.636719 69.578125 59.84375 69.179688 60.039062 C 68.78125 60.234375 68.371094 60.410156 67.949219 60.574219 C 67.527344 60.738281 67.105469 60.882812 66.679688 61.007812 C 66.253906 61.136719 65.832031 61.238281 65.417969 61.324219 C 65.003906 61.40625 64.605469 61.46875 64.214844 61.507812 C 63.828125 61.546875 63.460938 61.5625 63.117188 61.554688 C 62.773438 61.546875 62.453125 61.515625 62.164062 61.460938 C 61.875 61.40625 61.617188 61.328125 61.394531 61.230469 C 61.171875 61.132812 60.984375 61.011719 60.835938 60.875 C 60.6875 60.734375 60.578125 60.578125 60.511719 60.402344 C 60.445312 60.226562 60.417969 60.039062 60.433594 59.835938 C 60.449219 59.632812 60.503906 59.417969 60.605469 59.195312 C 60.703125 58.972656 60.839844 58.742188 61.015625 58.507812 C 61.195312 58.269531 61.410156 58.03125 61.65625 57.792969 C 61.90625 57.554688 62.1875 57.320312 62.5 57.085938 C 62.8125 56.855469 63.148438 56.628906 63.511719 56.410156 C 63.875 56.195312 64.253906 55.988281 64.65625 55.792969 C 65.054688 55.597656 65.464844 55.421875 65.886719 55.257812 C 66.304688 55.09375 66.730469 54.949219 67.152344 54.824219 C 67.578125 54.699219 68 54.59375 68.414062 54.507812 C 68.828125 54.425781 69.230469 54.363281 69.617188 54.324219 C 70.003906 54.285156 70.371094 54.269531 70.714844 54.277344 C 71.0625 54.285156 71.378906 54.316406 71.667969 54.371094 C 71.960938 54.425781 72.214844 54.503906 72.441406 54.601562 C 72.664062 54.699219 72.847656 54.820312 72.996094 54.957031 C 73.144531 55.097656 73.253906 55.253906 73.324219 55.429688 Z M 73.324219 55.429688 " fill-opacity="1" fill-rule="nonzero"/><path fill="#5046c3" d="M 72.800781 75.652344 C 72.757812 75.652344 72.714844 75.652344 72.671875 75.648438 L 33.472656 75.148438 C 31.726562 75.121094 30.253906 74.097656 29.625 72.472656 C 29.003906 70.859375 29.402344 69.121094 30.671875 67.933594 L 59.207031 40.9375 C 59.957031 40.203125 61.023438 39.785156 62.164062 39.789062 L 100.433594 40.757812 C 102.160156 40.804688 103.613281 41.828125 104.234375 43.429688 C 104.855469 45.03125 104.472656 46.769531 103.234375 47.96875 L 75.648438 74.496094 C 74.84375 75.238281 73.816406 75.652344 72.800781 75.652344 Z M 62.128906 40.953125 C 61.324219 40.953125 60.550781 41.253906 60.015625 41.777344 L 31.472656 68.785156 C 30.378906 69.808594 30.363281 71.140625 30.714844 72.050781 C 31.070312 72.96875 31.984375 73.960938 33.488281 73.984375 L 72.699219 74.484375 C 73.464844 74.511719 74.242188 74.203125 74.847656 73.644531 L 102.425781 47.128906 C 103.320312 46.261719 103.59375 45.007812 103.148438 43.851562 C 102.699219 42.699219 101.648438 41.957031 100.402344 41.921875 L 62.148438 40.953125 C 62.140625 40.953125 62.136719 40.953125 62.128906 40.953125 Z M 102.828125 47.546875 L 102.835938 47.546875 Z M 102.828125 47.546875 " fill-opacity="1" fill-rule="nonzero"/><path fill="#5046c3" d="M 73.324219 55.429688 C 73.390625 55.605469 73.417969 55.792969 73.402344 55.996094 C 73.386719 56.199219 73.328125 56.414062 73.230469 56.636719 C 73.132812 56.859375 72.992188 57.089844 72.816406 57.324219 C 72.640625 57.5625 72.425781 57.800781 72.175781 58.039062 C 71.925781 58.277344 71.644531 58.511719 71.332031 58.746094 C 71.023438 58.976562 70.683594 59.203125 70.320312 59.421875 C 69.957031 59.636719 69.578125 59.84375 69.179688 60.039062 C 68.78125 60.234375 68.371094 60.410156 67.949219 60.574219 C 67.527344 60.738281 67.105469 60.882812 66.679688 61.007812 C 66.253906 61.136719 65.832031 61.238281 65.417969 61.324219 C 65.003906 61.40625 64.605469 61.46875 64.214844 61.507812 C 63.828125 61.546875 63.460938 61.5625 63.117188 61.554688 C 62.773438 61.546875 62.453125 61.515625 62.164062 61.460938 C 61.875 61.40625 61.617188 61.328125 61.394531 61.230469 C 61.171875 61.132812 60.984375 61.011719 60.835938 60.875 C 60.6875 60.734375 60.578125 60.578125 60.511719 60.402344 C 60.445312 60.226562 60.417969 60.039062 60.433594 59.835938 C 60.449219 59.632812 60.503906 59.417969 60.605469 59.195312 C 60.703125 58.972656 60.839844 58.742188 61.015625 58.507812 C 61.195312 58.269531 61.410156 58.03125 61.65625 57.792969 C 61.90625 57.554688 62.1875 57.320312 62.5 57.085938 C 62.8125 56.855469 63.148438 56.628906 63.511719 56.410156 C 63.875 56.195312 64.253906 55.988281 64.65625 55.792969 C 65.054688 55.597656 65.464844 55.421875 65.886719 55.257812 C 66.304688 55.09375 66.730469 54.949219 67.152344 54.824219 C 67.578125 54.699219 68 54.59375 68.414062 54.507812 C 68.828125 54.425781 69.230469 54.363281 69.617188 54.324219 C 70.003906 54.285156 70.371094 54.269531 70.714844 54.277344 C 71.0625 54.285156 71.378906 54.316406 71.667969 54.371094 C 71.960938 54.425781 72.214844 54.503906 72.441406 54.601562 C 72.664062 54.699219 72.847656 54.820312 72.996094 54.957031 C 73.144531 55.097656 73.253906 55.253906 73.324219 55.429688 Z M 73.324219 55.429688 " fill-opacity="1" fill-rule="nonzero"/><path fill="#5046c3" d="M 63.296875 62.140625 C 63.234375 62.140625 63.167969 62.140625 63.105469 62.136719 C 61.449219 62.097656 60.335938 61.558594 59.96875 60.613281 C 59.601562 59.667969 60.058594 58.519531 61.253906 57.371094 C 62.324219 56.347656 63.894531 55.40625 65.671875 54.714844 C 69.636719 53.175781 73.15625 53.394531 73.867188 55.21875 C 74.234375 56.164062 73.777344 57.3125 72.578125 58.460938 C 71.511719 59.484375 69.941406 60.429688 68.160156 61.117188 C 66.457031 61.78125 64.738281 62.140625 63.296875 62.140625 Z M 70.511719 54.859375 C 69.355469 54.859375 67.832031 55.128906 66.097656 55.800781 C 64.453125 56.4375 63.023438 57.296875 62.0625 58.214844 C 61.253906 58.992188 60.875 59.730469 61.054688 60.191406 C 61.234375 60.652344 62.011719 60.945312 63.132812 60.972656 C 64.453125 60.996094 66.097656 60.667969 67.738281 60.03125 C 69.378906 59.394531 70.8125 58.535156 71.773438 57.617188 C 72.582031 56.84375 72.957031 56.101562 72.777344 55.640625 C 72.601562 55.179688 71.773438 54.859375 70.511719 54.859375 Z M 70.511719 54.859375 " fill-opacity="1" fill-rule="nonzero"/><path fill="#5046c3" d="M 108.449219 57.789062 C 108.207031 57.789062 107.984375 57.640625 107.898438 57.398438 L 103.339844 44.402344 L 73.535156 55.972656 C 73.234375 56.089844 72.894531 55.941406 72.777344 55.640625 C 72.660156 55.339844 72.8125 55.003906 73.113281 54.886719 L 103.480469 43.097656 C 103.628906 43.039062 103.792969 43.046875 103.9375 43.113281 C 104.078125 43.179688 104.191406 43.300781 104.242188 43.449219 L 109 57.015625 C 109.105469 57.316406 108.945312 57.652344 108.640625 57.757812 C 108.578125 57.78125 108.511719 57.789062 108.449219 57.789062 Z M 108.449219 57.789062 " fill-opacity="1" fill-rule="nonzero"/><path fill="#5046c3" d="M 111.210938 64.199219 C 109.179688 64.988281 106.929688 63.71875 106.5625 61.566406 L 105.601562 58.398438 C 105.359375 56.914062 106.191406 55.453125 107.605469 54.90625 C 108.996094 54.363281 110.59375 54.882812 111.417969 56.140625 L 112.859375 59.144531 C 114.03125 60.972656 113.234375 63.414062 111.210938 64.199219 Z M 111.210938 64.199219 " fill-opacity="1" fill-rule="nonzero"/><path fill="#5046c3" d="M 109.960938 65.019531 C 109.273438 65.019531 108.589844 64.84375 107.976562 64.492188 C 106.929688 63.902344 106.207031 62.886719 105.992188 61.703125 L 105.042969 58.566406 C 105.035156 58.542969 105.027344 58.515625 105.023438 58.492188 C 104.742188 56.738281 105.738281 55.003906 107.394531 54.359375 C 109.035156 53.722656 110.933594 54.335938 111.90625 55.820312 C 111.921875 55.839844 111.933594 55.863281 111.945312 55.886719 L 113.371094 58.863281 C 114.007812 59.875 114.160156 61.105469 113.789062 62.246094 C 113.414062 63.394531 112.550781 64.304688 111.421875 64.742188 C 110.949219 64.929688 110.453125 65.019531 109.960938 65.019531 Z M 106.171875 58.265625 L 107.121094 61.398438 C 107.128906 61.421875 107.132812 61.445312 107.136719 61.46875 C 107.285156 62.320312 107.796875 63.050781 108.550781 63.476562 C 109.300781 63.902344 110.195312 63.96875 111 63.65625 C 111.800781 63.34375 112.414062 62.699219 112.679688 61.882812 C 112.945312 61.066406 112.832031 60.183594 112.367188 59.460938 C 112.355469 59.441406 112.34375 59.421875 112.332031 59.398438 L 110.910156 56.429688 C 110.230469 55.425781 108.9375 55.011719 107.816406 55.449219 C 106.683594 55.886719 105.996094 57.070312 106.171875 58.265625 Z M 106.171875 58.265625 " fill-opacity="1" fill-rule="nonzero"/><path fill="#5046c3" d="M 56.082031 291.832031 C 50.628906 291.832031 46.355469 279.007812 46.355469 262.636719 C 46.355469 246.265625 50.628906 233.441406 56.082031 233.441406 C 61.535156 233.441406 65.804688 246.265625 65.804688 262.636719 C 65.804688 279.007812 61.535156 291.832031 56.082031 291.832031 Z M 56.082031 234.605469 C 51.949219 234.605469 47.523438 245.871094 47.523438 262.636719 C 47.523438 279.402344 51.949219 290.664062 56.082031 290.664062 C 60.214844 290.664062 64.636719 279.402344 64.636719 262.636719 C 64.636719 245.871094 60.214844 234.605469 56.082031 234.605469 Z M 56.082031 234.605469 " fill-opacity="1" fill-rule="nonzero"/><path fill="#5046c3" d="M 36.625 279.566406 C 33.699219 279.566406 31.6875 278.777344 30.796875 277.234375 C 28.070312 272.511719 37.042969 262.398438 51.21875 254.214844 L 51.511719 254.71875 L 51.21875 254.214844 C 57.886719 250.363281 64.644531 247.570312 70.246094 246.351562 C 76.058594 245.085938 80.007812 245.683594 81.363281 248.039062 C 82.722656 250.390625 81.265625 254.109375 77.265625 258.507812 C 73.410156 262.75 67.613281 267.207031 60.941406 271.058594 C 54.273438 274.90625 47.515625 277.699219 41.914062 278.917969 C 39.921875 279.351562 38.148438 279.566406 36.625 279.566406 Z M 75.574219 246.863281 C 74.132812 246.863281 72.425781 247.070312 70.496094 247.492188 C 65.007812 248.6875 58.371094 251.433594 51.800781 255.226562 C 37.28125 263.609375 29.742188 273.070312 31.808594 276.648438 C 32.875 278.5 36.46875 278.910156 41.667969 277.777344 C 47.152344 276.585938 53.792969 273.839844 60.359375 270.046875 C 66.925781 266.253906 72.625 261.878906 76.402344 257.722656 C 79.980469 253.789062 81.421875 250.46875 80.355469 248.621094 C 79.683594 247.457031 78.011719 246.863281 75.574219 246.863281 Z M 75.574219 246.863281 " fill-opacity="1" fill-rule="nonzero"/><path fill="#5046c3" d="M 75.539062 279.566406 C 74.011719 279.566406 72.238281 279.351562 70.246094 278.917969 C 64.644531 277.699219 57.886719 274.90625 51.21875 271.058594 C 37.042969 262.871094 28.070312 252.761719 30.796875 248.039062 C 32.15625 245.683594 36.101562 245.085938 41.914062 246.351562 C 47.515625 247.570312 54.273438 250.363281 60.941406 254.214844 C 67.613281 258.066406 73.410156 262.519531 77.265625 266.761719 C 81.265625 271.160156 82.722656 274.878906 81.363281 277.234375 C 80.472656 278.777344 78.460938 279.566406 75.539062 279.566406 Z M 51.800781 270.046875 C 58.371094 273.839844 65.007812 276.585938 70.496094 277.777344 C 75.691406 278.910156 79.285156 278.5 80.355469 276.648438 C 81.421875 274.800781 79.980469 271.484375 76.402344 267.546875 C 72.625 263.394531 66.925781 259.015625 60.359375 255.226562 C 53.792969 251.433594 47.152344 248.6875 41.667969 247.492188 C 36.46875 246.359375 32.875 246.773438 31.808594 248.621094 C 29.742188 252.199219 37.28125 261.664062 51.800781 270.046875 Z M 51.800781 270.046875 " fill-opacity="1" fill-rule="nonzero"/><path fill="#5046c3" d="M 60.152344 262.636719 C 60.152344 262.902344 60.125 263.167969 60.074219 263.429688 C 60.019531 263.691406 59.941406 263.945312 59.839844 264.191406 C 59.738281 264.441406 59.613281 264.675781 59.464844 264.894531 C 59.316406 265.117188 59.148438 265.324219 58.957031 265.511719 C 58.769531 265.703125 58.5625 265.871094 58.34375 266.019531 C 58.121094 266.167969 57.886719 266.292969 57.636719 266.394531 C 57.390625 266.496094 57.136719 266.574219 56.875 266.625 C 56.613281 266.679688 56.347656 266.707031 56.082031 266.707031 C 55.8125 266.707031 55.550781 266.679688 55.285156 266.625 C 55.023438 266.574219 54.769531 266.496094 54.523438 266.394531 C 54.277344 266.292969 54.042969 266.167969 53.820312 266.019531 C 53.597656 265.871094 53.390625 265.703125 53.203125 265.511719 C 53.015625 265.324219 52.84375 265.117188 52.695312 264.894531 C 52.546875 264.675781 52.421875 264.441406 52.320312 264.191406 C 52.21875 263.945312 52.140625 263.691406 52.089844 263.429688 C 52.039062 263.167969 52.011719 262.902344 52.011719 262.636719 C 52.011719 262.367188 52.039062 262.101562 52.089844 261.839844 C 52.140625 261.578125 52.21875 261.324219 52.320312 261.078125 C 52.421875 260.832031 52.546875 260.597656 52.695312 260.375 C 52.84375 260.152344 53.015625 259.945312 53.203125 259.757812 C 53.390625 259.570312 53.597656 259.398438 53.820312 259.25 C 54.042969 259.101562 54.277344 258.976562 54.523438 258.875 C 54.769531 258.773438 55.023438 258.695312 55.285156 258.644531 C 55.550781 258.589844 55.8125 258.566406 56.082031 258.566406 C 56.347656 258.566406 56.613281 258.589844 56.875 258.644531 C 57.136719 258.695312 57.390625 258.773438 57.636719 258.875 C 57.886719 258.976562 58.121094 259.101562 58.34375 259.25 C 58.5625 259.398438 58.769531 259.570312 58.957031 259.757812 C 59.148438 259.945312 59.316406 260.152344 59.464844 260.375 C 59.613281 260.597656 59.738281 260.832031 59.839844 261.078125 C 59.941406 261.324219 60.019531 261.578125 60.074219 261.839844 C 60.125 262.101562 60.152344 262.367188 60.152344 262.636719 Z M 60.152344 262.636719 " fill-opacity="1" fill-rule="nonzero"/><path fill="#5046c3" d="M 66.707031 248.714844 C 66.707031 249.058594 66.644531 249.390625 66.511719 249.707031 C 66.378906 250.027344 66.191406 250.304688 65.949219 250.546875 C 65.707031 250.792969 65.425781 250.980469 65.109375 251.109375 C 64.792969 251.242188 64.460938 251.308594 64.117188 251.308594 C 63.773438 251.308594 63.441406 251.242188 63.125 251.109375 C 62.808594 250.980469 62.527344 250.792969 62.285156 250.546875 C 62.042969 250.304688 61.855469 250.027344 61.722656 249.707031 C 61.59375 249.390625 61.527344 249.058594 61.527344 248.714844 C 61.527344 248.371094 61.59375 248.042969 61.722656 247.726562 C 61.855469 247.40625 62.042969 247.128906 62.285156 246.882812 C 62.527344 246.640625 62.808594 246.453125 63.125 246.324219 C 63.441406 246.191406 63.773438 246.125 64.117188 246.125 C 64.460938 246.125 64.792969 246.191406 65.109375 246.324219 C 65.425781 246.453125 65.707031 246.640625 65.949219 246.882812 C 66.191406 247.128906 66.378906 247.40625 66.511719 247.726562 C 66.644531 248.042969 66.707031 248.371094 66.707031 248.714844 Z M 66.707031 248.714844 " fill-opacity="1" fill-rule="nonzero"/><path fill="#5046c3" d="M 83.320312 276.863281 C 83.320312 277.207031 83.253906 277.539062 83.121094 277.855469 C 82.988281 278.175781 82.800781 278.453125 82.558594 278.699219 C 82.316406 278.941406 82.035156 279.128906 81.71875 279.257812 C 81.402344 279.390625 81.070312 279.457031 80.726562 279.457031 C 80.382812 279.457031 80.054688 279.390625 79.734375 279.257812 C 79.417969 279.128906 79.136719 278.941406 78.894531 278.699219 C 78.652344 278.453125 78.464844 278.175781 78.332031 277.855469 C 78.203125 277.539062 78.136719 277.207031 78.136719 276.863281 C 78.136719 276.523438 78.203125 276.191406 78.332031 275.875 C 78.464844 275.554688 78.652344 275.277344 78.894531 275.03125 C 79.136719 274.789062 79.417969 274.601562 79.734375 274.472656 C 80.054688 274.339844 80.382812 274.273438 80.726562 274.273438 C 81.070312 274.273438 81.402344 274.339844 81.71875 274.472656 C 82.035156 274.601562 82.316406 274.789062 82.558594 275.03125 C 82.800781 275.277344 82.988281 275.554688 83.121094 275.875 C 83.253906 276.191406 83.320312 276.523438 83.320312 276.863281 Z M 83.320312 276.863281 " fill-opacity="1" fill-rule="nonzero"/><path fill="#5046c3" d="M 42.476562 262.636719 C 42.476562 262.980469 42.410156 263.308594 42.277344 263.625 C 42.148438 263.945312 41.960938 264.222656 41.71875 264.46875 C 41.472656 264.710938 41.195312 264.898438 40.875 265.027344 C 40.558594 265.160156 40.226562 265.226562 39.886719 265.226562 C 39.542969 265.226562 39.210938 265.160156 38.894531 265.027344 C 38.574219 264.898438 38.296875 264.710938 38.050781 264.46875 C 37.808594 264.222656 37.621094 263.945312 37.492188 263.625 C 37.359375 263.308594 37.292969 262.980469 37.292969 262.636719 C 37.292969 262.292969 37.359375 261.960938 37.492188 261.644531 C 37.621094 261.328125 37.808594 261.046875 38.050781 260.804688 C 38.296875 260.558594 38.574219 260.371094 38.894531 260.242188 C 39.210938 260.109375 39.542969 260.042969 39.886719 260.042969 C 40.226562 260.042969 40.558594 260.109375 40.875 260.242188 C 41.195312 260.371094 41.472656 260.558594 41.71875 260.804688 C 41.960938 261.046875 42.148438 261.328125 42.277344 261.644531 C 42.410156 261.960938 42.476562 262.292969 42.476562 262.636719 Z M 42.476562 262.636719 " fill-opacity="1" fill-rule="nonzero"/><path fill="#5046c3" d="M 308.996094 236.578125 C 297.800781 236.578125 288.730469 245.652344 288.730469 256.84375 C 288.730469 260.550781 289.726562 264.023438 291.464844 267.015625 L 304.3125 267.015625 L 304.3125 276.5625 C 305.816406 276.921875 307.382812 277.109375 308.996094 277.109375 C 320.1875 277.109375 329.261719 268.039062 329.261719 256.84375 C 329.261719 245.652344 320.1875 236.578125 308.996094 236.578125 Z M 308.996094 236.578125 " fill-opacity="1" fill-rule="nonzero"/><path fill="#5046c3" d="M 308.996094 277.695312 C 307.371094 277.695312 305.75 277.503906 304.175781 277.132812 C 303.914062 277.070312 303.726562 276.835938 303.726562 276.5625 L 303.726562 267.597656 L 291.464844 267.597656 C 291.257812 267.597656 291.066406 267.488281 290.960938 267.308594 C 289.117188 264.140625 288.144531 260.519531 288.144531 256.84375 C 288.144531 245.347656 297.5 235.992188 308.996094 235.992188 C 320.492188 235.992188 329.84375 245.347656 329.84375 256.84375 C 329.84375 268.339844 320.492188 277.695312 308.996094 277.695312 Z M 304.894531 276.097656 C 306.238281 276.382812 307.617188 276.527344 308.996094 276.527344 C 319.847656 276.527344 328.679688 267.699219 328.679688 256.84375 C 328.679688 245.992188 319.847656 237.160156 308.996094 237.160156 C 298.140625 237.160156 289.3125 245.992188 289.3125 256.84375 C 289.3125 260.203125 290.171875 263.511719 291.804688 266.429688 L 304.3125 266.429688 C 304.632812 266.429688 304.894531 266.691406 304.894531 267.015625 Z M 304.894531 276.097656 " fill-opacity="1" fill-rule="nonzero"/><path fill="#ffffff" d="M 325.617188 256.84375 C 325.617188 268.039062 316.546875 277.109375 305.351562 277.109375 C 302.832031 277.109375 300.417969 276.652344 298.191406 275.804688 C 297.144531 277.800781 294.898438 278.976562 292.5625 278.558594 C 289.683594 278.042969 287.765625 275.289062 288.285156 272.40625 C 288.476562 271.339844 288.976562 270.410156 289.671875 269.679688 C 286.804688 266.183594 285.085938 261.714844 285.085938 256.84375 C 285.085938 245.652344 294.160156 236.578125 305.351562 236.578125 C 316.546875 236.578125 325.617188 245.652344 325.617188 256.84375 Z M 325.617188 256.84375 " fill-opacity="1" fill-rule="nonzero"/><path fill="#5046c3" d="M 293.511719 279.226562 C 293.164062 279.226562 292.8125 279.195312 292.460938 279.132812 C 290.914062 278.855469 289.570312 277.992188 288.671875 276.703125 C 287.773438 275.414062 287.433594 273.851562 287.710938 272.304688 C 287.886719 271.332031 288.296875 270.429688 288.910156 269.664062 C 286.0625 266.015625 284.503906 261.484375 284.503906 256.84375 C 284.503906 245.347656 293.855469 235.992188 305.351562 235.992188 C 316.847656 235.992188 326.203125 245.347656 326.203125 256.84375 C 326.203125 268.339844 316.847656 277.695312 305.351562 277.695312 C 302.976562 277.695312 300.660156 277.300781 298.449219 276.519531 C 297.363281 278.21875 295.503906 279.226562 293.511719 279.226562 Z M 305.351562 237.160156 C 294.5 237.160156 285.667969 245.992188 285.667969 256.84375 C 285.667969 261.378906 287.25 265.808594 290.121094 269.3125 C 290.308594 269.539062 290.296875 269.871094 290.09375 270.085938 C 289.449219 270.753906 289.023438 271.59375 288.859375 272.511719 C 288.636719 273.75 288.910156 275.003906 289.628906 276.039062 C 290.347656 277.070312 291.425781 277.761719 292.667969 277.984375 C 294.703125 278.351562 296.714844 277.363281 297.671875 275.535156 C 297.808594 275.273438 298.121094 275.15625 298.398438 275.257812 C 300.613281 276.101562 302.953125 276.527344 305.351562 276.527344 C 316.207031 276.527344 325.035156 267.699219 325.035156 256.84375 C 325.035156 245.992188 316.207031 237.160156 305.351562 237.160156 Z M 305.351562 237.160156 " fill-opacity="1" fill-rule="nonzero"/><path fill="#6c68f9" d="M 292.699219 257.132812 C 299.675781 250.15625 311.027344 250.15625 318.007812 257.132812 L 320.085938 255.050781 C 311.960938 246.925781 298.742188 246.925781 290.617188 255.050781 Z M 292.699219 257.132812 " fill-opacity="1" fill-rule="nonzero"/><path fill="#6c68f9" d="M 297.261719 261.699219 C 301.722656 257.238281 308.980469 257.238281 313.441406 261.699219 L 315.523438 259.617188 C 309.914062 254.007812 300.789062 254.007812 295.183594 259.617188 Z M 297.261719 261.699219 " fill-opacity="1" fill-rule="nonzero"/><path fill="#6c68f9" d="M 301.828125 266.261719 C 303.773438 264.320312 306.933594 264.320312 308.875 266.261719 L 310.957031 264.179688 C 307.867188 261.089844 302.835938 261.089844 299.746094 264.179688 Z M 301.828125 266.261719 " fill-opacity="1" fill-rule="nonzero"/><g clip-path="url(#53584c2b84)"><path fill="#5046c3" d="M 175.421875 50.40625 C 175.277344 50.40625 175.128906 50.351562 175.015625 50.238281 C 174.785156 50.015625 174.78125 49.644531 175.003906 49.414062 L 187.914062 36.113281 C 188.136719 35.882812 188.507812 35.878906 188.738281 36.101562 C 188.96875 36.328125 188.976562 36.695312 188.75 36.925781 L 175.84375 50.226562 C 175.726562 50.34375 175.574219 50.40625 175.421875 50.40625 Z M 175.421875 50.40625 " fill-opacity="1" fill-rule="nonzero"/></g><path fill="#5046c3" d="M 161.609375 52.515625 C 161.464844 52.515625 161.316406 52.460938 161.203125 52.347656 C 160.972656 52.125 160.964844 51.753906 161.191406 51.523438 L 174.101562 38.222656 C 174.324219 37.992188 174.695312 37.988281 174.925781 38.210938 C 175.15625 38.4375 175.160156 38.804688 174.9375 39.035156 L 162.027344 52.335938 C 161.914062 52.453125 161.761719 52.515625 161.609375 52.515625 Z M 161.609375 52.515625 " fill-opacity="1" fill-rule="nonzero"/><path fill="#5046c3" d="M 42.125 316.03125 C 41.976562 316.03125 41.828125 315.976562 41.714844 315.867188 C 41.484375 315.640625 41.480469 315.269531 41.707031 315.039062 L 58.050781 298.351562 C 58.277344 298.121094 58.644531 298.117188 58.875 298.34375 C 59.105469 298.566406 59.109375 298.9375 58.882812 299.167969 L 42.542969 315.859375 C 42.425781 315.972656 42.277344 316.03125 42.125 316.03125 Z M 42.125 316.03125 " fill-opacity="1" fill-rule="nonzero"/><path fill="#5046c3" d="M 43.515625 323.683594 C 43.363281 323.683594 43.210938 323.625 43.097656 323.507812 C 42.871094 323.277344 42.875 322.90625 43.105469 322.683594 L 52.148438 313.816406 C 52.378906 313.589844 52.746094 313.59375 52.972656 313.824219 C 53.199219 314.054688 53.195312 314.421875 52.964844 314.648438 L 43.921875 323.515625 C 43.808594 323.625 43.664062 323.683594 43.515625 323.683594 Z M 43.515625 323.683594 " fill-opacity="1" fill-rule="nonzero"/><path fill="#5046c3" d="M 324.046875 203.863281 C 323.898438 203.863281 323.746094 203.808594 323.632812 203.691406 C 323.40625 203.464844 323.40625 203.09375 323.632812 202.867188 L 335.457031 191.046875 C 335.683594 190.816406 336.054688 190.816406 336.28125 191.046875 C 336.507812 191.273438 336.507812 191.640625 336.28125 191.871094 L 324.457031 203.691406 C 324.34375 203.808594 324.195312 203.863281 324.046875 203.863281 Z M 324.046875 203.863281 " fill-opacity="1" fill-rule="nonzero"/><g clip-path="url(#6107991056)"><path fill="#5046c3" d="M 325.089844 210.816406 C 324.9375 210.816406 324.785156 210.757812 324.671875 210.640625 C 324.445312 210.410156 324.449219 210.042969 324.683594 209.816406 L 345.894531 189.128906 C 346.125 188.902344 346.492188 188.90625 346.71875 189.136719 C 346.941406 189.367188 346.9375 189.738281 346.707031 189.964844 L 325.496094 210.652344 C 325.382812 210.761719 325.238281 210.816406 325.089844 210.816406 Z M 325.089844 210.816406 " fill-opacity="1" fill-rule="nonzero"/></g></svg>