<svg xmlns="http://www.w3.org/2000/svg" xmlns:xlink="http://www.w3.org/1999/xlink" width="500" zoomAndPan="magnify" viewBox="0 0 375 374.999991" height="500" preserveAspectRatio="xMidYMid meet" version="1.0"><defs><clipPath id="48edcf0699"><path d="M 42.109375 42 L 133 42 L 133 132 L 42.109375 132 Z M 42.109375 42 " clip-rule="nonzero"/></clipPath><clipPath id="32ba3e6879"><path d="M 42.109375 58 L 117 58 L 117 133 L 42.109375 133 Z M 42.109375 58 " clip-rule="nonzero"/></clipPath><clipPath id="14f5c40fc1"><path d="M 230 81 L 285 81 L 285 338.851562 L 230 338.851562 Z M 230 81 " clip-rule="nonzero"/></clipPath><clipPath id="6d984bad1c"><path d="M 230 80 L 286 80 L 286 338.851562 L 230 338.851562 Z M 230 80 " clip-rule="nonzero"/></clipPath><clipPath id="0ab1c9f671"><path d="M 97 295 L 265 295 L 265 338.851562 L 97 338.851562 Z M 97 295 " clip-rule="nonzero"/></clipPath><clipPath id="a21ed3f2dc"><path d="M 96 80 L 266 80 L 266 338.851562 L 96 338.851562 Z M 96 80 " clip-rule="nonzero"/></clipPath><clipPath id="22c36984e2"><path d="M 70.855469 67.304688 L 100.46875 67.304688 L 100.46875 105.148438 L 70.855469 105.148438 Z M 70.855469 67.304688 " clip-rule="nonzero"/></clipPath><clipPath id="7cca1cd0fb"><path d="M 78.300781 76.050781 C 85.648438 67.726562 85.949219 67.5 86.550781 67.425781 C 87.449219 67.273438 89.175781 67.574219 90 68.25 C 90.75 68.925781 91.351562 70.050781 91.199219 71.550781 C 90.898438 75 83.625 85.273438 81.226562 87.976562 C 80.324219 89.023438 79.726562 89.476562 78.898438 89.851562 C 78.226562 90.148438 77.625 90.375 76.949219 90.300781 C 76.050781 90.148438 74.851562 89.773438 74.175781 89.101562 C 73.425781 88.273438 72.75 86.851562 72.976562 85.351562 C 73.351562 82.648438 78.074219 77.324219 80.324219 74.773438 C 81.75 73.050781 82.726562 71.699219 84.375 71.023438 C 86.023438 70.273438 88.949219 69.675781 90.074219 70.574219 C 91.351562 71.476562 91.949219 74.25 91.425781 76.648438 C 90.523438 81.148438 81.824219 91.273438 78.976562 93.976562 C 77.925781 94.949219 77.324219 95.476562 76.351562 95.699219 C 75.375 95.925781 74.101562 95.625 73.273438 95.25 C 72.601562 94.949219 72.074219 94.5 71.699219 93.824219 C 71.25 92.851562 70.800781 91.351562 71.324219 89.699219 C 72.375 86.101562 80.398438 77.773438 83.175781 74.550781 C 84.523438 72.976562 85.050781 72.148438 86.324219 71.023438 C 87.675781 69.898438 89.773438 68.175781 91.273438 67.875 C 92.398438 67.726562 93.601562 68.023438 94.425781 68.625 C 95.324219 69.375 96.300781 71.101562 96.375 72.300781 C 96.449219 73.351562 95.925781 74.550781 95.324219 75.300781 C 94.648438 76.050781 93.226562 75.898438 92.476562 76.800781 C 91.425781 78.074219 91.648438 80.699219 90.601562 82.949219 C 89.101562 86.175781 85.5 91.5 83.773438 93.75 C 82.949219 94.949219 82.425781 95.773438 81.675781 96.300781 C 81.074219 96.824219 80.550781 97.199219 79.800781 97.199219 C 78.675781 97.273438 76.648438 96.824219 75.824219 96 C 74.925781 95.175781 74.324219 93.675781 74.550781 92.023438 C 75 88.949219 79.949219 83.25 83.023438 79.425781 C 85.875 75.976562 89.476562 71.023438 92.175781 70.050781 C 93.675781 69.449219 95.25 69.75 96.300781 70.425781 C 97.351562 71.101562 98.25 72.898438 98.324219 74.101562 C 98.398438 75.148438 97.949219 75.75 97.273438 77.101562 C 95.324219 80.773438 86.398438 93.226562 83.550781 96.148438 C 82.425781 97.199219 81.976562 97.726562 81 98.023438 C 80.023438 98.25 78.75 98.023438 77.851562 97.726562 C 77.175781 97.425781 76.648438 96.898438 76.273438 96.375 C 75.824219 95.851562 75.523438 95.175781 75.449219 94.425781 C 75.375 93.523438 75.523438 92.699219 76.125 91.351562 C 77.476562 88.199219 83.398438 80.398438 86.625 76.574219 C 88.949219 73.800781 91.273438 71.023438 93.226562 69.976562 C 94.351562 69.300781 95.398438 68.925781 96.375 69.148438 C 97.574219 69.300781 99.226562 70.425781 99.824219 71.476562 C 100.351562 72.601562 100.273438 73.875 99.824219 75.601562 C 98.699219 79.574219 92.773438 91.351562 89.324219 93.074219 C 87.675781 93.898438 85.050781 93.449219 84.449219 92.550781 C 83.851562 91.800781 84.976562 89.925781 85.574219 88.199219 C 86.398438 85.726562 88.273438 80.851562 89.476562 79.199219 C 90 78.375 90.375 78 91.125 77.699219 C 92.101562 77.25 94.273438 77.175781 95.398438 77.625 C 96.375 78.074219 97.199219 79.125 97.574219 80.101562 C 97.949219 81 97.949219 81.976562 97.648438 83.398438 C 96.824219 86.476562 91.5 93.824219 90.148438 97.125 C 89.476562 98.773438 89.773438 100.875 89.023438 101.101562 C 88.125 101.324219 85.125 98.625 84.75 97.050781 C 84.300781 95.550781 85.425781 93.75 86.175781 91.949219 C 87.148438 89.699219 88.800781 86.175781 90.449219 84.449219 C 91.726562 83.175781 93.300781 81.675781 94.648438 81.824219 C 96.300781 82.050781 99.074219 85.199219 99.523438 87 C 99.824219 88.574219 98.851562 90 98.023438 91.800781 C 96.75 94.648438 93.449219 100.199219 91.5 101.925781 C 90.523438 102.75 89.699219 103.050781 88.726562 103.125 C 87.75 103.273438 86.550781 102.976562 85.726562 102.449219 C 84.898438 101.925781 84.074219 100.949219 83.773438 100.050781 C 83.398438 99.148438 83.324219 97.949219 83.625 96.976562 C 83.925781 96.074219 84.523438 95.023438 85.425781 94.425781 C 86.476562 93.824219 88.648438 93.375 89.851562 93.824219 C 91.125 94.273438 92.625 95.851562 92.925781 97.125 C 93.300781 98.398438 92.773438 100.5 91.875 101.550781 C 91.050781 102.523438 88.949219 103.199219 87.675781 103.125 C 86.625 103.125 85.574219 102.449219 84.898438 101.773438 C 84.226562 101.101562 83.625 100.050781 83.476562 99.074219 C 83.324219 98.101562 83.550781 97.273438 84 96 C 85.050781 93.449219 88.425781 85.425781 90.976562 85.050781 C 93.074219 84.675781 97.726562 89.101562 97.800781 90.75 C 97.800781 91.949219 95.101562 92.699219 94.5 93.976562 C 93.824219 95.25 94.5 97.050781 93.976562 98.398438 C 93.449219 99.675781 92.25 100.800781 91.199219 101.925781 C 90.148438 102.976562 89.175781 104.476562 87.675781 104.851562 C 85.949219 105.375 82.574219 105.074219 81.300781 103.875 C 80.101562 102.75 79.949219 100.050781 80.101562 98.175781 C 80.175781 96.449219 81 95.175781 81.898438 93.074219 C 83.476562 89.550781 87.300781 81.601562 89.476562 79.199219 C 90.449219 78.074219 91.125 77.550781 92.101562 77.25 C 93.148438 77.023438 94.5 77.175781 95.398438 77.625 C 96.300781 78.148438 97.199219 79.125 97.574219 80.101562 C 97.949219 81 97.875 81.976562 97.648438 83.398438 C 97.050781 85.949219 94.351562 91.425781 92.851562 94.273438 C 91.800781 96.226562 91.050781 97.800781 89.773438 99 C 88.5 100.199219 86.699219 101.476562 85.125 101.625 C 83.699219 101.699219 81.675781 101.023438 80.699219 99.976562 C 79.648438 98.773438 79.351562 96.675781 79.5 94.574219 C 79.800781 91.648438 81.824219 87.824219 83.773438 84.226562 C 86.175781 79.648438 90.675781 71.699219 93.300781 69.898438 C 94.425781 69.074219 95.398438 68.925781 96.375 69.148438 C 97.574219 69.300781 99.226562 70.574219 99.824219 71.476562 C 100.273438 72.148438 100.351562 72.824219 100.351562 73.574219 C 100.273438 74.476562 99.898438 75.375 99.148438 76.5 C 97.875 78.523438 94.5 81.074219 92.101562 84 C 89.101562 87.601562 84.898438 95.101562 82.800781 96.976562 C 82.125 97.648438 81.75 97.875 81 98.023438 C 79.949219 98.175781 77.851562 97.726562 77.023438 97.125 C 76.351562 96.75 75.976562 96.148438 75.75 95.476562 C 75.449219 94.574219 75.226562 93.675781 75.675781 92.324219 C 76.726562 88.648438 85.800781 77.625 88.574219 73.949219 C 89.773438 72.375 90.148438 71.25 91.199219 70.574219 C 92.101562 69.976562 93.300781 69.601562 94.273438 69.75 C 95.25 69.824219 96.449219 70.425781 97.125 71.175781 C 97.800781 71.851562 98.324219 73.125 98.324219 74.101562 C 98.324219 75.074219 97.949219 76.050781 97.273438 77.101562 C 96.226562 78.75 93.898438 80.175781 92.023438 82.5 C 89.175781 85.800781 84.824219 93.375 82.425781 95.550781 C 81.375 96.523438 80.773438 97.050781 79.800781 97.199219 C 78.601562 97.351562 76.648438 96.824219 75.824219 96 C 74.925781 95.175781 74.324219 93.824219 74.550781 92.023438 C 75.074219 87.75 84.300781 74.773438 87.601562 71.023438 C 89.023438 69.300781 90.375 68.25 91.273438 67.875 C 91.726562 67.726562 91.949219 67.800781 92.398438 67.875 C 93.148438 68.101562 94.574219 68.625 95.25 69.375 C 95.851562 70.050781 96.375 71.324219 96.375 72.300781 C 96.375 73.273438 95.925781 74.550781 95.324219 75.300781 C 94.648438 76.050781 92.476562 76.726562 92.476562 76.800781 C 92.476562 76.875 93.449219 76.351562 93.523438 76.425781 C 93.898438 77.101562 82.050781 91.273438 78.976562 93.976562 C 77.851562 94.949219 77.398438 95.550781 76.351562 95.699219 C 75.226562 95.851562 73.273438 95.25 72.375 94.574219 C 71.773438 94.125 71.398438 93.523438 71.25 92.851562 C 70.949219 91.949219 70.800781 91.050781 71.324219 89.699219 C 72.449219 86.101562 81.300781 72.375 83.625 72.523438 C 84.75 72.601562 84.601562 76.050781 85.726562 76.875 C 86.925781 77.625 90.375 76.648438 90.523438 77.25 C 90.75 77.851562 88.199219 79.050781 86.773438 80.550781 C 84.523438 82.800781 80.851562 88.726562 78.898438 89.851562 C 78.148438 90.375 77.625 90.375 76.949219 90.300781 C 76.050781 90.148438 74.851562 89.699219 74.175781 89.101562 C 73.5 88.425781 72.976562 87.300781 72.898438 86.398438 C 72.824219 85.425781 73.125 84.75 73.726562 83.476562 C 75.300781 80.324219 82.726562 70.125 84.976562 68.25 C 85.648438 67.648438 85.949219 67.5 86.550781 67.425781 C 87.300781 67.273438 88.5 67.351562 89.25 67.726562 C 90 68.101562 90.675781 69.074219 90.976562 69.75 C 91.273438 70.351562 91.351562 70.949219 91.199219 71.550781 C 91.050781 72.300781 90.675781 72.976562 89.925781 73.949219 C 88.5 75.824219 83.851562 80.699219 82.125 81.601562 C 81.449219 81.898438 81.074219 81.898438 80.476562 81.75 C 79.800781 81.675781 78.824219 81.226562 78.300781 80.625 C 77.773438 80.101562 77.398438 79.125 77.398438 78.375 C 77.398438 77.550781 78.300781 76.050781 78.300781 76.050781 " clip-rule="nonzero"/></clipPath><clipPath id="8ab35b9af1"><path d="M 87.417969 92.925781 L 95.65625 92.925781 L 95.65625 102.355469 L 87.417969 102.355469 Z M 87.417969 92.925781 " clip-rule="nonzero"/></clipPath><clipPath id="2e833a71d3"><path d="M 95.324219 97.875 C 92.175781 102.148438 90.824219 102.523438 89.925781 102.226562 C 89.023438 102 87.976562 100.875 87.675781 100.050781 C 87.375 99.375 87.449219 98.550781 87.601562 97.875 C 87.824219 97.273438 88.351562 96.523438 88.949219 96.148438 C 89.699219 95.699219 91.199219 95.476562 92.101562 95.851562 C 93 96.148438 93.976562 97.351562 94.199219 98.25 C 94.351562 99.148438 93.976562 100.648438 93.300781 101.324219 C 92.699219 102 91.199219 102.449219 90.300781 102.300781 C 89.398438 102.148438 88.199219 101.25 87.75 100.425781 C 87.375 99.523438 87.601562 98.25 87.976562 97.199219 C 88.351562 96.074219 89.25 94.648438 90.148438 93.898438 C 90.976562 93.300781 92.175781 92.851562 93.074219 93 C 93.976562 93.148438 95.101562 94.050781 95.476562 94.875 C 95.851562 95.699219 95.324219 97.875 95.324219 97.875 " clip-rule="nonzero"/></clipPath><clipPath id="4a94723217"><path d="M 89.199219 90.546875 L 96.972656 90.546875 L 96.972656 100.519531 L 89.199219 100.519531 Z M 89.199219 90.546875 " clip-rule="nonzero"/></clipPath><clipPath id="9812a98b7c"><path d="M 96.898438 95.101562 C 94.425781 100.050781 93.148438 100.5 92.25 100.5 C 91.5 100.425781 90.75 100.050781 90.226562 99.601562 C 89.773438 99.074219 89.324219 98.398438 89.25 97.648438 C 89.175781 96.75 89.550781 95.324219 90.226562 94.648438 C 90.898438 93.976562 92.398438 93.601562 93.300781 93.75 C 94.199219 93.976562 95.398438 94.949219 95.699219 95.773438 C 96.074219 96.675781 95.925781 98.175781 95.398438 99 C 94.875 99.75 93.523438 100.5 92.625 100.5 C 91.648438 100.5 90.300781 99.75 89.773438 99 C 89.25 98.25 89.25 96.976562 89.398438 95.851562 C 89.625 94.574219 90.300781 92.851562 91.125 91.949219 C 91.875 91.199219 93 90.601562 93.898438 90.601562 C 94.800781 90.601562 96.074219 91.273438 96.523438 92.023438 C 97.050781 92.773438 96.898438 95.101562 96.898438 95.101562 " clip-rule="nonzero"/></clipPath><clipPath id="3cd4e25a8f"><path d="M 185 153.195312 L 198 153.195312 L 198 166 L 185 166 Z M 185 153.195312 " clip-rule="nonzero"/></clipPath><clipPath id="4ee897fc56"><path d="M 180.777344 165 L 202.527344 165 L 202.527344 177.195312 L 180.777344 177.195312 Z M 180.777344 165 " clip-rule="nonzero"/></clipPath><clipPath id="724d88d6e0"><path d="M 67.621094 69.421875 L 103.621094 69.421875 L 103.621094 105.421875 L 67.621094 105.421875 Z M 67.621094 69.421875 " clip-rule="nonzero"/></clipPath></defs><path fill="#ffffff" d="M 331.417969 44.675781 L 331.417969 81.621094 C 331.417969 86.066406 327.820312 89.664062 323.378906 89.664062 L 277.570312 89.664062 C 276.320312 89.664062 275.105469 90.066406 274.09375 90.804688 L 260.890625 100.554688 C 258.519531 102.300781 255.175781 100.605469 255.175781 97.664062 L 255.175781 44.675781 C 255.175781 40.234375 258.773438 36.636719 263.214844 36.636719 L 323.378906 36.636719 C 327.820312 36.636719 331.417969 40.234375 331.417969 44.675781 Z M 331.417969 44.675781 " fill-opacity="1" fill-rule="nonzero"/><path fill="#5046c3" d="M 258.765625 101.847656 C 258.121094 101.847656 257.476562 101.695312 256.878906 101.394531 C 255.460938 100.679688 254.585938 99.25 254.585938 97.664062 L 254.585938 44.675781 C 254.585938 39.917969 258.453125 36.046875 263.214844 36.046875 L 323.378906 36.046875 C 328.136719 36.046875 332.007812 39.917969 332.007812 44.675781 L 332.007812 81.621094 C 332.007812 86.382812 328.136719 90.253906 323.378906 90.253906 L 290.769531 90.253906 C 290.445312 90.253906 290.179688 89.992188 290.179688 89.664062 C 290.179688 89.339844 290.445312 89.074219 290.769531 89.074219 L 323.378906 89.074219 C 327.488281 89.074219 330.828125 85.730469 330.828125 81.621094 L 330.828125 44.675781 C 330.828125 40.566406 327.488281 37.226562 323.378906 37.226562 L 263.214844 37.226562 C 259.105469 37.226562 255.765625 40.566406 255.765625 44.675781 L 255.765625 97.664062 C 255.765625 98.820312 256.378906 99.820312 257.410156 100.339844 C 258.441406 100.863281 259.609375 100.761719 260.539062 100.078125 L 273.746094 90.328125 C 274.867188 89.507812 276.1875 89.074219 277.570312 89.074219 C 277.894531 89.074219 278.160156 89.339844 278.160156 89.664062 C 278.160156 89.992188 277.894531 90.253906 277.570312 90.253906 C 276.441406 90.253906 275.359375 90.609375 274.441406 91.28125 L 261.238281 101.027344 C 260.503906 101.570312 259.636719 101.847656 258.765625 101.847656 Z M 258.765625 101.847656 " fill-opacity="1" fill-rule="nonzero"/><path fill="#5046c3" d="M 96.351562 42.34375 C 92.40625 42.34375 88.582031 42.863281 84.9375 43.820312 L 84.9375 130.300781 C 88.582031 131.261719 92.40625 131.777344 96.351562 131.777344 C 121.046875 131.777344 141.070312 111.757812 141.070312 87.0625 C 141.070312 62.367188 121.046875 42.34375 96.351562 42.34375 Z M 96.351562 42.34375 " fill-opacity="1" fill-rule="nonzero"/><path fill="#5046c3" d="M 96.351562 132.367188 C 92.445312 132.367188 88.554688 131.863281 84.789062 130.871094 C 84.527344 130.804688 84.347656 130.570312 84.347656 130.300781 L 84.347656 43.820312 C 84.347656 43.554688 84.527344 43.320312 84.785156 43.25 C 88.554688 42.257812 92.445312 41.753906 96.351562 41.753906 C 121.335938 41.753906 141.660156 62.078125 141.660156 87.0625 C 141.660156 112.042969 121.335938 132.367188 96.351562 132.367188 Z M 85.527344 129.84375 C 89.0625 130.734375 92.699219 131.1875 96.351562 131.1875 C 120.683594 131.1875 140.480469 111.394531 140.480469 87.0625 C 140.480469 62.730469 120.683594 42.933594 96.351562 42.933594 C 92.699219 42.933594 89.058594 43.386719 85.527344 44.277344 Z M 85.527344 129.84375 " fill-opacity="1" fill-rule="nonzero"/><g clip-path="url(#48edcf0699)"><path fill="#ffffff" d="M 132.132812 87.0625 C 132.132812 88.527344 132.058594 89.988281 131.917969 91.445312 C 131.773438 92.902344 131.558594 94.347656 131.273438 95.785156 C 130.988281 97.222656 130.632812 98.640625 130.207031 100.042969 C 129.78125 101.441406 129.289062 102.820312 128.726562 104.171875 C 128.167969 105.527344 127.542969 106.847656 126.851562 108.140625 C 126.160156 109.433594 125.410156 110.6875 124.597656 111.90625 C 123.78125 113.121094 122.910156 114.296875 121.980469 115.429688 C 121.054688 116.5625 120.070312 117.644531 119.035156 118.679688 C 118 119.714844 116.914062 120.699219 115.785156 121.628906 C 114.652344 122.554688 113.476562 123.429688 112.257812 124.242188 C 111.042969 125.054688 109.785156 125.808594 108.496094 126.496094 C 107.203125 127.1875 105.882812 127.8125 104.527344 128.375 C 103.175781 128.933594 101.796875 129.425781 100.394531 129.851562 C 98.996094 130.277344 97.574219 130.632812 96.140625 130.917969 C 94.703125 131.203125 93.257812 131.417969 91.800781 131.5625 C 90.339844 131.707031 88.878906 131.777344 87.414062 131.777344 C 85.953125 131.777344 84.492188 131.707031 83.03125 131.5625 C 81.574219 131.417969 80.128906 131.203125 78.691406 130.917969 C 77.257812 130.632812 75.835938 130.277344 74.4375 129.851562 C 73.035156 129.425781 71.65625 128.933594 70.304688 128.375 C 68.949219 127.8125 67.628906 127.1875 66.335938 126.496094 C 65.046875 125.808594 63.789062 125.054688 62.574219 124.242188 C 61.355469 123.429688 60.179688 122.554688 59.046875 121.628906 C 57.917969 120.699219 56.832031 119.714844 55.796875 118.679688 C 54.761719 117.644531 53.777344 116.5625 52.851562 115.429688 C 51.921875 114.296875 51.050781 113.121094 50.234375 111.90625 C 49.421875 110.6875 48.671875 109.433594 47.980469 108.140625 C 47.289062 106.847656 46.664062 105.527344 46.105469 104.171875 C 45.542969 102.820312 45.050781 101.441406 44.625 100.042969 C 44.199219 98.640625 43.84375 97.222656 43.558594 95.785156 C 43.273438 94.347656 43.058594 92.902344 42.914062 91.445312 C 42.773438 89.988281 42.699219 88.527344 42.699219 87.0625 C 42.699219 85.597656 42.773438 84.136719 42.914062 82.679688 C 43.058594 81.222656 43.273438 79.773438 43.558594 78.335938 C 43.84375 76.902344 44.199219 75.484375 44.625 74.082031 C 45.050781 72.679688 45.542969 71.300781 46.105469 69.949219 C 46.664062 68.597656 47.289062 67.273438 47.980469 65.984375 C 48.671875 64.691406 49.421875 63.4375 50.234375 62.21875 C 51.050781 61 51.921875 59.824219 52.851562 58.695312 C 53.777344 57.5625 54.761719 56.476562 55.796875 55.441406 C 56.832031 54.40625 57.917969 53.425781 59.046875 52.496094 C 60.179688 51.566406 61.355469 50.695312 62.574219 49.882812 C 63.789062 49.066406 65.046875 48.316406 66.335938 47.625 C 67.628906 46.933594 68.949219 46.308594 70.304688 45.75 C 71.65625 45.1875 73.035156 44.695312 74.4375 44.269531 C 75.835938 43.847656 77.257812 43.492188 78.691406 43.203125 C 80.128906 42.917969 81.574219 42.703125 83.03125 42.5625 C 84.492188 42.417969 85.953125 42.34375 87.414062 42.34375 C 88.878906 42.34375 90.339844 42.417969 91.800781 42.5625 C 93.257812 42.703125 94.703125 42.917969 96.140625 43.203125 C 97.574219 43.492188 98.996094 43.847656 100.394531 44.269531 C 101.796875 44.695312 103.175781 45.1875 104.527344 45.75 C 105.882812 46.308594 107.203125 46.933594 108.496094 47.625 C 109.785156 48.316406 111.042969 49.066406 112.257812 49.882812 C 113.476562 50.695312 114.652344 51.566406 115.785156 52.496094 C 116.914062 53.425781 118 54.40625 119.035156 55.441406 C 120.070312 56.476562 121.054688 57.5625 121.980469 58.695312 C 122.910156 59.824219 123.78125 61 124.597656 62.21875 C 125.410156 63.4375 126.160156 64.691406 126.851562 65.984375 C 127.542969 67.273438 128.167969 68.597656 128.726562 69.949219 C 129.289062 71.300781 129.78125 72.679688 130.207031 74.082031 C 130.632812 75.484375 130.988281 76.902344 131.273438 78.335938 C 131.558594 79.773438 131.773438 81.222656 131.917969 82.679688 C 132.058594 84.136719 132.132812 85.597656 132.132812 87.0625 Z M 132.132812 87.0625 " fill-opacity="1" fill-rule="nonzero"/></g><path fill="#ffffff" d="M 117.882812 87.0625 C 117.882812 88.058594 117.832031 89.054688 117.734375 90.046875 C 117.636719 91.039062 117.492188 92.027344 117.296875 93.003906 C 117.101562 93.984375 116.859375 94.949219 116.570312 95.90625 C 116.28125 96.859375 115.945312 97.796875 115.5625 98.71875 C 115.183594 99.640625 114.753906 100.542969 114.285156 101.421875 C 113.816406 102.304688 113.300781 103.160156 112.75 103.988281 C 112.195312 104.816406 111.601562 105.617188 110.96875 106.390625 C 110.335938 107.160156 109.664062 107.898438 108.960938 108.605469 C 108.253906 109.308594 107.515625 109.980469 106.742188 110.613281 C 105.972656 111.246094 105.171875 111.839844 104.34375 112.394531 C 103.511719 112.949219 102.65625 113.460938 101.777344 113.929688 C 100.898438 114.402344 99.996094 114.828125 99.074219 115.210938 C 98.152344 115.589844 97.214844 115.925781 96.261719 116.214844 C 95.304688 116.507812 94.339844 116.75 93.359375 116.941406 C 92.382812 117.136719 91.394531 117.285156 90.402344 117.382812 C 89.410156 117.480469 88.414062 117.527344 87.414062 117.527344 C 86.417969 117.527344 85.421875 117.480469 84.429688 117.382812 C 83.4375 117.285156 82.449219 117.136719 81.472656 116.941406 C 80.492188 116.75 79.527344 116.507812 78.570312 116.214844 C 77.617188 115.925781 76.679688 115.589844 75.757812 115.210938 C 74.835938 114.828125 73.933594 114.402344 73.054688 113.929688 C 72.175781 113.460938 71.320312 112.949219 70.488281 112.394531 C 69.660156 111.839844 68.859375 111.246094 68.089844 110.613281 C 67.316406 109.980469 66.578125 109.308594 65.871094 108.605469 C 65.167969 107.898438 64.496094 107.160156 63.863281 106.390625 C 63.230469 105.617188 62.636719 104.816406 62.082031 103.988281 C 61.53125 103.160156 61.015625 102.304688 60.546875 101.421875 C 60.078125 100.542969 59.648438 99.640625 59.269531 98.71875 C 58.886719 97.796875 58.550781 96.859375 58.261719 95.90625 C 57.972656 94.949219 57.730469 93.984375 57.535156 93.003906 C 57.339844 92.027344 57.195312 91.039062 57.097656 90.046875 C 57 89.054688 56.949219 88.058594 56.949219 87.0625 C 56.949219 86.0625 57 85.066406 57.097656 84.074219 C 57.195312 83.082031 57.339844 82.097656 57.535156 81.117188 C 57.730469 80.140625 57.972656 79.171875 58.261719 78.21875 C 58.550781 77.261719 58.886719 76.324219 59.269531 75.402344 C 59.648438 74.480469 60.078125 73.578125 60.546875 72.699219 C 61.015625 71.820312 61.53125 70.964844 62.082031 70.136719 C 62.636719 69.304688 63.230469 68.503906 63.863281 67.734375 C 64.496094 66.960938 65.167969 66.222656 65.871094 65.519531 C 66.578125 64.8125 67.316406 64.144531 68.089844 63.511719 C 68.859375 62.878906 69.660156 62.285156 70.488281 61.730469 C 71.320312 61.175781 72.175781 60.664062 73.054688 60.191406 C 73.933594 59.722656 74.835938 59.296875 75.757812 58.914062 C 76.679688 58.53125 77.617188 58.195312 78.570312 57.90625 C 79.527344 57.617188 80.492188 57.375 81.472656 57.179688 C 82.449219 56.984375 83.4375 56.839844 84.429688 56.742188 C 85.421875 56.644531 86.417969 56.59375 87.414062 56.59375 C 88.414062 56.59375 89.410156 56.644531 90.402344 56.742188 C 91.394531 56.839844 92.382812 56.984375 93.359375 57.179688 C 94.339844 57.375 95.304688 57.617188 96.261719 57.90625 C 97.214844 58.195312 98.152344 58.53125 99.074219 58.914062 C 99.996094 59.296875 100.898438 59.722656 101.777344 60.191406 C 102.65625 60.664062 103.511719 61.175781 104.34375 61.730469 C 105.171875 62.285156 105.972656 62.878906 106.742188 63.511719 C 107.515625 64.144531 108.253906 64.8125 108.960938 65.519531 C 109.664062 66.222656 110.335938 66.960938 110.96875 67.734375 C 111.601562 68.503906 112.195312 69.304688 112.75 70.136719 C 113.300781 70.964844 113.816406 71.820312 114.285156 72.699219 C 114.753906 73.578125 115.183594 74.480469 115.5625 75.402344 C 115.945312 76.324219 116.28125 77.261719 116.570312 78.21875 C 116.859375 79.171875 117.101562 80.140625 117.296875 81.117188 C 117.492188 82.097656 117.636719 83.082031 117.734375 84.074219 C 117.832031 85.066406 117.882812 86.0625 117.882812 87.0625 Z M 117.882812 87.0625 " fill-opacity="1" fill-rule="nonzero"/><path fill="#fede5a" d="M 64.820312 88.480469 C 64.820312 102.054688 73.703125 113.558594 85.972656 117.492188 C 69.820312 116.746094 56.953125 103.40625 56.953125 87.0625 C 56.953125 70.234375 70.59375 56.59375 87.417969 56.59375 C 90.667969 56.59375 93.796875 57.105469 96.734375 58.050781 C 96.25 58.019531 95.769531 58.011719 95.289062 58.011719 C 78.460938 58.011719 64.820312 71.652344 64.820312 88.480469 Z M 64.820312 88.480469 " fill-opacity="1" fill-rule="nonzero"/><path fill="#5046c3" d="M 87.414062 118.117188 C 70.292969 118.117188 56.359375 104.1875 56.359375 87.0625 C 56.359375 69.9375 70.292969 56.003906 87.414062 56.003906 C 104.539062 56.003906 118.472656 69.9375 118.472656 87.0625 C 118.472656 104.1875 104.539062 118.117188 87.414062 118.117188 Z M 87.414062 57.183594 C 70.941406 57.183594 57.539062 70.585938 57.539062 87.0625 C 57.539062 103.535156 70.941406 116.9375 87.414062 116.9375 C 103.890625 116.9375 117.292969 103.535156 117.292969 87.0625 C 117.292969 70.585938 103.890625 57.183594 87.414062 57.183594 Z M 87.414062 57.183594 " fill-opacity="1" fill-rule="nonzero"/><g clip-path="url(#32ba3e6879)"><path fill="#5046c3" d="M 87.414062 132.367188 C 62.433594 132.367188 42.109375 112.042969 42.109375 87.0625 C 42.109375 76.730469 45.496094 67 51.902344 58.925781 C 52.105469 58.667969 52.476562 58.625 52.734375 58.828125 C 52.988281 59.03125 53.03125 59.402344 52.828125 59.65625 C 46.585938 67.523438 43.289062 77 43.289062 87.0625 C 43.289062 111.394531 63.085938 131.1875 87.414062 131.1875 C 97.488281 131.1875 107.339844 127.707031 115.152344 121.382812 C 115.40625 121.179688 115.777344 121.21875 115.980469 121.46875 C 116.1875 121.722656 116.148438 122.09375 115.894531 122.300781 C 107.871094 128.792969 97.757812 132.367188 87.414062 132.367188 Z M 87.414062 132.367188 " fill-opacity="1" fill-rule="nonzero"/></g><path fill="#5046c3" d="M 122.433594 115.464844 C 122.304688 115.464844 122.175781 115.421875 122.066406 115.335938 C 121.8125 115.132812 121.769531 114.761719 121.972656 114.507812 C 128.234375 106.632812 131.542969 97.144531 131.542969 87.0625 C 131.542969 62.730469 111.746094 42.933594 87.414062 42.933594 C 77.3125 42.933594 67.804688 46.257812 59.925781 52.542969 C 59.671875 52.746094 59.300781 52.703125 59.097656 52.449219 C 58.894531 52.195312 58.933594 51.824219 59.1875 51.621094 C 67.28125 45.167969 77.042969 41.753906 87.414062 41.753906 C 112.398438 41.753906 132.722656 62.078125 132.722656 87.0625 C 132.722656 97.414062 129.324219 107.15625 122.894531 115.242188 C 122.777344 115.386719 122.605469 115.464844 122.433594 115.464844 Z M 122.433594 115.464844 " fill-opacity="1" fill-rule="nonzero"/><path fill="#5046c3" d="M 80.910156 75.183594 C 82.257812 73.710938 84.144531 72.964844 86.574219 72.9375 L 86.574219 70.527344 L 88.292969 70.527344 L 88.292969 72.902344 C 90.699219 73.070312 92.542969 73.78125 93.828125 75.03125 C 95.117188 76.28125 95.789062 77.933594 95.851562 79.988281 L 92.679688 79.988281 C 92.59375 79.070312 92.347656 78.277344 91.9375 77.613281 C 91.175781 76.394531 89.960938 75.753906 88.292969 75.691406 L 88.292969 84.496094 C 91.097656 85.28125 93 86.019531 94 86.707031 C 95.632812 87.84375 96.449219 89.523438 96.449219 91.746094 C 96.449219 94.957031 95.402344 97.242188 93.3125 98.59375 C 92.152344 99.34375 90.480469 99.835938 88.292969 100.078125 L 88.292969 103.59375 L 86.574219 103.59375 L 86.574219 100.078125 C 83.058594 99.851562 80.671875 98.605469 79.417969 96.347656 C 78.726562 95.125 78.382812 93.476562 78.382812 91.402344 L 81.589844 91.402344 C 81.6875 93.054688 81.949219 94.261719 82.371094 95.023438 C 83.117188 96.390625 84.507812 97.15625 86.539062 97.324219 L 86.539062 87.449219 C 83.929688 86.957031 82 86.128906 80.757812 84.96875 C 79.511719 83.808594 78.890625 82.203125 78.890625 80.148438 C 78.890625 78.3125 79.566406 76.660156 80.910156 75.183594 Z M 83.339844 82.742188 C 84.128906 83.417969 85.195312 83.886719 86.539062 84.152344 L 86.539062 75.636719 C 84.953125 75.699219 83.828125 76.183594 83.160156 77.085938 C 82.488281 77.992188 82.152344 78.941406 82.152344 79.933594 C 82.152344 81.128906 82.546875 82.0625 83.339844 82.742188 Z M 92.570312 95.152344 C 92.980469 94.425781 93.1875 93.585938 93.1875 92.632812 C 93.1875 91.121094 92.628906 89.976562 91.519531 89.191406 C 90.878906 88.730469 89.804688 88.296875 88.292969 87.886719 L 88.292969 97.414062 C 90.359375 97.320312 91.785156 96.5625 92.570312 95.152344 Z M 92.570312 95.152344 " fill-opacity="1" fill-rule="nonzero"/><g clip-path="url(#14f5c40fc1)"><path fill="#5046c3" d="M 264.601562 81.425781 L 230.933594 81.425781 L 230.933594 338.363281 L 264.601562 338.363281 C 275.570312 338.363281 284.449219 329.488281 284.449219 318.515625 L 284.449219 101.269531 C 284.449219 90.304688 275.570312 81.425781 264.601562 81.425781 Z M 264.601562 81.425781 " fill-opacity="1" fill-rule="nonzero"/></g><g clip-path="url(#6d984bad1c)"><path fill="#5046c3" d="M 264.601562 338.953125 L 230.933594 338.953125 C 230.605469 338.953125 230.34375 338.6875 230.34375 338.363281 L 230.34375 81.425781 C 230.34375 81.097656 230.605469 80.835938 230.933594 80.835938 L 264.601562 80.835938 C 275.871094 80.835938 285.039062 90.003906 285.039062 101.269531 L 285.039062 318.515625 C 285.039062 329.785156 275.871094 338.953125 264.601562 338.953125 Z M 231.523438 337.773438 L 264.601562 337.773438 C 275.21875 337.773438 283.859375 329.136719 283.859375 318.515625 L 283.859375 101.269531 C 283.859375 90.652344 275.21875 82.015625 264.601562 82.015625 L 231.523438 82.015625 Z M 231.523438 337.773438 " fill-opacity="1" fill-rule="nonzero"/></g><path fill="#fede5a" d="M 97.492188 102.644531 L 264.714844 102.644531 L 264.714844 299.847656 L 97.492188 299.847656 Z M 97.492188 102.644531 " fill-opacity="1" fill-rule="nonzero"/><path fill="#ffffff" d="M 264.714844 102.644531 L 264.714844 111.292969 L 104.601562 111.292969 L 104.601562 299.847656 L 97.492188 299.847656 L 97.492188 102.644531 Z M 264.714844 102.644531 " fill-opacity="1" fill-rule="nonzero"/><path fill="#ffffff" d="M 264.714844 101.269531 L 264.714844 104.570312 L 97.492188 104.570312 L 97.492188 101.269531 C 97.492188 90.304688 106.367188 81.425781 117.335938 81.425781 L 244.871094 81.425781 C 255.839844 81.425781 264.714844 90.304688 264.714844 101.269531 Z M 264.714844 101.269531 " fill-opacity="1" fill-rule="nonzero"/><g clip-path="url(#0ab1c9f671)"><path fill="#ffffff" d="M 264.714844 295.597656 L 264.714844 318.515625 C 264.714844 329.488281 255.839844 338.363281 244.871094 338.363281 L 117.335938 338.363281 C 106.367188 338.363281 97.492188 329.488281 97.492188 318.515625 L 97.492188 295.597656 Z M 264.714844 295.597656 " fill-opacity="1" fill-rule="nonzero"/></g><g clip-path="url(#a21ed3f2dc)"><path fill="#5046c3" d="M 244.871094 338.953125 L 148.878906 338.953125 C 148.550781 338.953125 148.289062 338.6875 148.289062 338.363281 C 148.289062 338.039062 148.550781 337.773438 148.878906 337.773438 L 244.871094 337.773438 C 255.488281 337.773438 264.125 329.136719 264.125 318.515625 L 264.125 101.269531 C 264.125 90.652344 255.488281 82.015625 244.871094 82.015625 L 117.335938 82.015625 C 106.71875 82.015625 98.082031 90.652344 98.082031 101.269531 L 98.082031 318.515625 C 98.082031 329.136719 106.71875 337.773438 117.335938 337.773438 L 136.113281 337.773438 C 136.441406 337.773438 136.703125 338.039062 136.703125 338.363281 C 136.703125 338.6875 136.441406 338.953125 136.113281 338.953125 L 117.335938 338.953125 C 106.070312 338.953125 96.902344 329.785156 96.902344 318.515625 L 96.902344 101.269531 C 96.902344 90.003906 106.070312 80.835938 117.335938 80.835938 L 244.871094 80.835938 C 256.140625 80.835938 265.304688 90.003906 265.304688 101.269531 L 265.304688 318.515625 C 265.304688 329.785156 256.140625 338.953125 244.871094 338.953125 Z M 244.871094 338.953125 " fill-opacity="1" fill-rule="nonzero"/></g><path fill="#5046c3" d="M 264.714844 105.160156 L 144.503906 105.160156 C 144.175781 105.160156 143.914062 104.894531 143.914062 104.570312 C 143.914062 104.242188 144.175781 103.980469 144.503906 103.980469 L 264.125 103.980469 L 264.125 101.269531 C 264.125 90.652344 255.488281 82.015625 244.871094 82.015625 L 117.335938 82.015625 C 106.71875 82.015625 98.082031 90.652344 98.082031 101.269531 L 98.082031 103.980469 L 129.320312 103.980469 C 129.648438 103.980469 129.910156 104.242188 129.910156 104.570312 C 129.910156 104.894531 129.648438 105.160156 129.320312 105.160156 L 97.492188 105.160156 C 97.164062 105.160156 96.902344 104.894531 96.902344 104.570312 L 96.902344 101.269531 C 96.902344 90.003906 106.070312 80.835938 117.335938 80.835938 L 244.871094 80.835938 C 256.140625 80.835938 265.304688 90.003906 265.304688 101.269531 L 265.304688 104.570312 C 265.304688 104.894531 265.042969 105.160156 264.714844 105.160156 Z M 264.714844 105.160156 " fill-opacity="1" fill-rule="nonzero"/><path fill="#ffffff" d="M 141.367188 295.632812 C 149.878906 287.914062 154.980469 280.628906 153.144531 278.367188 C 151.007812 275.730469 140.277344 280.898438 129.179688 289.902344 C 126.820312 291.816406 124.636719 293.75 122.679688 295.632812 Z M 141.367188 295.632812 " fill-opacity="1" fill-rule="nonzero"/><path fill="#ffffff" d="M 149.734375 108.460938 C 141.101562 116.042969 135.878906 123.242188 137.679688 125.535156 C 139.773438 128.203125 150.585938 123.210938 161.828125 114.386719 C 164.21875 112.511719 166.429688 110.613281 168.417969 108.761719 Z M 149.734375 108.460938 " fill-opacity="1" fill-rule="nonzero"/><path fill="#5046c3" d="M 264.714844 296.1875 L 97.492188 296.1875 C 97.164062 296.1875 96.902344 295.921875 96.902344 295.597656 C 96.902344 295.269531 97.164062 295.007812 97.492188 295.007812 L 264.714844 295.007812 C 265.042969 295.007812 265.304688 295.269531 265.304688 295.597656 C 265.304688 295.921875 265.042969 296.1875 264.714844 296.1875 Z M 264.714844 296.1875 " fill-opacity="1" fill-rule="nonzero"/><path fill="#5046c3" d="M 198.75 93.585938 L 162.613281 93.585938 C 162.289062 93.585938 162.023438 93.324219 162.023438 92.996094 C 162.023438 92.671875 162.289062 92.40625 162.613281 92.40625 L 198.75 92.40625 C 199.074219 92.40625 199.339844 92.671875 199.339844 92.996094 C 199.339844 93.324219 199.074219 93.585938 198.75 93.585938 Z M 198.75 93.585938 " fill-opacity="1" fill-rule="nonzero"/><path fill="#ffffff" d="M 177.359375 284.28125 C 171.0625 284.28125 165.941406 279.15625 165.941406 272.859375 C 165.941406 266.5625 171.0625 261.441406 177.359375 261.441406 C 179.472656 261.441406 181.535156 262.023438 183.328125 263.121094 C 183.605469 263.292969 183.691406 263.65625 183.523438 263.933594 C 183.351562 264.210938 182.988281 264.296875 182.710938 264.128906 C 181.105469 263.140625 179.253906 262.621094 177.359375 262.621094 C 171.714844 262.621094 167.121094 267.214844 167.121094 272.859375 C 167.121094 278.507812 171.714844 283.101562 177.359375 283.101562 C 183.007812 283.101562 187.601562 278.507812 187.601562 272.859375 C 187.601562 272.222656 187.539062 271.582031 187.421875 270.957031 C 187.363281 270.636719 187.574219 270.328125 187.894531 270.269531 C 188.214844 270.207031 188.523438 270.417969 188.582031 270.738281 C 188.714844 271.433594 188.78125 272.148438 188.78125 272.859375 C 188.78125 279.15625 183.65625 284.28125 177.359375 284.28125 Z M 177.359375 284.28125 " fill-opacity="1" fill-rule="nonzero"/><path fill="#ffffff" d="M 178.203125 275.183594 C 178.046875 275.183594 177.898438 275.121094 177.789062 275.011719 L 174.308594 271.53125 C 174.078125 271.300781 174.078125 270.929688 174.308594 270.699219 C 174.539062 270.46875 174.914062 270.46875 175.144531 270.699219 L 178.203125 273.757812 L 191.40625 260.554688 C 191.636719 260.324219 192.011719 260.324219 192.242188 260.554688 C 192.472656 260.785156 192.472656 261.160156 192.242188 261.390625 L 178.621094 275.011719 C 178.511719 275.121094 178.359375 275.183594 178.203125 275.183594 Z M 178.203125 275.183594 " fill-opacity="1" fill-rule="nonzero"/><path fill="#ffffff" d="M 219.175781 265.808594 L 197.71875 265.808594 C 197.390625 265.808594 197.128906 265.546875 197.128906 265.21875 C 197.128906 264.894531 197.390625 264.628906 197.71875 264.628906 L 219.175781 264.628906 C 219.5 264.628906 219.765625 264.894531 219.765625 265.21875 C 219.765625 265.546875 219.5 265.808594 219.175781 265.808594 Z M 219.175781 265.808594 " fill-opacity="1" fill-rule="nonzero"/><path fill="#ffffff" d="M 219.175781 273.449219 L 197.71875 273.449219 C 197.390625 273.449219 197.128906 273.1875 197.128906 272.859375 C 197.128906 272.535156 197.390625 272.269531 197.71875 272.269531 L 219.175781 272.269531 C 219.5 272.269531 219.765625 272.535156 219.765625 272.859375 C 219.765625 273.1875 219.5 273.449219 219.175781 273.449219 Z M 219.175781 273.449219 " fill-opacity="1" fill-rule="nonzero"/><path fill="#ffffff" d="M 208.445312 281.089844 L 197.71875 281.089844 C 197.390625 281.089844 197.128906 280.828125 197.128906 280.5 C 197.128906 280.175781 197.390625 279.910156 197.71875 279.910156 L 208.445312 279.910156 C 208.769531 279.910156 209.035156 280.175781 209.035156 280.5 C 209.035156 280.828125 208.769531 281.089844 208.445312 281.089844 Z M 208.445312 281.089844 " fill-opacity="1" fill-rule="nonzero"/><path fill="#ffffff" d="M 327.921875 329.734375 L 305.5 329.734375 C 303.082031 329.734375 301.125 327.777344 301.125 325.363281 L 301.125 308.597656 C 301.125 306.179688 303.082031 304.222656 305.5 304.222656 L 327.921875 304.222656 C 330.335938 304.222656 332.292969 306.179688 332.292969 308.597656 L 332.292969 325.363281 C 332.292969 327.777344 330.335938 329.734375 327.921875 329.734375 Z M 327.921875 329.734375 " fill-opacity="1" fill-rule="nonzero"/><path fill="#fede5a" d="M 332.292969 308.449219 L 332.292969 311.09375 C 332.292969 308.757812 330.402344 306.863281 328.0625 306.863281 L 305.355469 306.863281 C 303.019531 306.863281 301.125 308.757812 301.125 311.09375 L 301.125 308.449219 C 301.125 306.117188 303.019531 304.226562 305.355469 304.226562 L 328.0625 304.226562 C 330.402344 304.226562 332.292969 306.117188 332.292969 308.449219 Z M 332.292969 308.449219 " fill-opacity="1" fill-rule="nonzero"/><path fill="#5046c3" d="M 328.066406 330.324219 L 324.5 330.324219 C 324.171875 330.324219 323.910156 330.0625 323.910156 329.734375 C 323.910156 329.410156 324.171875 329.144531 324.5 329.144531 L 328.066406 329.144531 C 330.070312 329.144531 331.703125 327.515625 331.703125 325.507812 L 331.703125 308.449219 C 331.703125 306.445312 330.070312 304.8125 328.066406 304.8125 L 305.351562 304.8125 C 303.347656 304.8125 301.714844 306.445312 301.714844 308.449219 L 301.714844 325.507812 C 301.714844 327.515625 303.347656 329.144531 305.351562 329.144531 L 319.84375 329.144531 C 320.167969 329.144531 320.433594 329.410156 320.433594 329.734375 C 320.433594 330.0625 320.167969 330.324219 319.84375 330.324219 L 305.351562 330.324219 C 302.695312 330.324219 300.535156 328.164062 300.535156 325.507812 L 300.535156 308.449219 C 300.535156 305.792969 302.695312 303.632812 305.351562 303.632812 L 328.066406 303.632812 C 330.722656 303.632812 332.882812 305.792969 332.882812 308.449219 L 332.882812 325.507812 C 332.882812 328.164062 330.722656 330.324219 328.066406 330.324219 Z M 328.066406 330.324219 " fill-opacity="1" fill-rule="nonzero"/><path fill="#5046c3" d="M 316.710938 321.210938 C 316.007812 321.210938 315.300781 320.972656 314.726562 320.492188 L 300.75 308.90625 C 300.613281 308.792969 300.535156 308.625 300.535156 308.449219 C 300.535156 305.796875 302.699219 303.636719 305.355469 303.636719 L 328.0625 303.636719 C 330.722656 303.636719 332.882812 305.796875 332.882812 308.449219 C 332.882812 308.625 332.804688 308.792969 332.671875 308.902344 L 318.699219 320.492188 C 318.125 320.972656 317.417969 321.210938 316.710938 321.210938 Z M 301.726562 308.179688 L 315.476562 319.585938 C 316.191406 320.179688 317.230469 320.179688 317.945312 319.585938 L 331.695312 308.179688 C 331.554688 306.300781 329.980469 304.816406 328.0625 304.816406 L 305.355469 304.816406 C 303.4375 304.816406 301.863281 306.300781 301.726562 308.179688 Z M 332.292969 308.449219 L 332.300781 308.449219 Z M 332.292969 308.449219 " fill-opacity="1" fill-rule="nonzero"/><path fill="#ffffff" d="M 195.386719 133.476562 L 195.386719 243.929688 C 195.386719 247.347656 192.617188 250.109375 189.207031 250.109375 L 172.710938 250.109375 C 169.296875 250.109375 166.527344 247.347656 166.527344 243.929688 L 166.527344 133.476562 C 166.527344 130.070312 169.296875 127.300781 172.710938 127.300781 L 189.207031 127.300781 C 192.617188 127.300781 195.386719 130.070312 195.386719 133.476562 Z M 195.386719 133.476562 " fill-opacity="1" fill-rule="nonzero"/><path fill="#ffffff" d="M 195.386719 133.476562 L 195.386719 243.929688 C 195.386719 247.347656 192.617188 250.109375 189.207031 250.109375 L 172.710938 250.109375 C 169.296875 250.109375 166.527344 247.347656 166.527344 243.929688 L 166.527344 133.476562 C 166.527344 130.070312 169.296875 127.300781 172.710938 127.300781 L 189.207031 127.300781 C 192.617188 127.300781 195.386719 130.070312 195.386719 133.476562 Z M 195.386719 133.476562 " fill-opacity="1" fill-rule="nonzero"/><path fill="#5046c3" d="M 189.207031 250.699219 L 172.710938 250.699219 C 168.976562 250.699219 165.9375 247.664062 165.9375 243.929688 L 165.9375 133.476562 C 165.9375 129.746094 168.976562 126.710938 172.710938 126.710938 L 189.207031 126.710938 C 192.9375 126.710938 195.976562 129.746094 195.976562 133.476562 L 195.976562 243.929688 C 195.976562 247.664062 192.9375 250.699219 189.207031 250.699219 Z M 172.710938 127.890625 C 169.625 127.890625 167.117188 130.398438 167.117188 133.476562 L 167.117188 243.929688 C 167.117188 247.011719 169.625 249.519531 172.710938 249.519531 L 189.207031 249.519531 C 192.289062 249.519531 194.796875 247.011719 194.796875 243.929688 L 194.796875 133.476562 C 194.796875 130.398438 192.289062 127.890625 189.207031 127.890625 Z M 172.710938 127.890625 " fill-opacity="1" fill-rule="nonzero"/><path fill="#5046c3" d="M 312.042969 136.1875 L 289.398438 136.1875 L 289.398438 241.222656 L 312.042969 241.222656 C 317.640625 241.222656 322.183594 236.679688 322.183594 231.070312 L 322.183594 146.339844 C 322.183594 140.726562 317.640625 136.1875 312.042969 136.1875 Z M 312.042969 136.1875 " fill-opacity="1" fill-rule="nonzero"/><path fill="#5046c3" d="M 312.042969 241.8125 L 289.398438 241.8125 C 289.070312 241.8125 288.808594 241.546875 288.808594 241.222656 L 288.808594 136.1875 C 288.808594 135.859375 289.070312 135.597656 289.398438 135.597656 L 312.042969 135.597656 C 317.960938 135.597656 322.773438 140.414062 322.773438 146.339844 L 322.773438 231.070312 C 322.773438 236.992188 317.960938 241.8125 312.042969 241.8125 Z M 289.988281 240.632812 L 312.042969 240.632812 C 317.308594 240.632812 321.59375 236.34375 321.59375 231.070312 L 321.59375 146.339844 C 321.59375 141.066406 317.308594 136.777344 312.042969 136.777344 L 289.988281 136.777344 Z M 289.988281 240.632812 " fill-opacity="1" fill-rule="nonzero"/><path fill="#fede5a" d="M 305.789062 146.488281 L 305.789062 230.921875 C 305.789062 236.613281 301.183594 241.222656 295.511719 241.222656 L 166.527344 241.222656 L 166.527344 136.1875 L 295.511719 136.1875 C 301.183594 136.1875 305.789062 140.796875 305.789062 146.488281 Z M 305.789062 146.488281 " fill-opacity="1" fill-rule="nonzero"/><path fill="#ffffff" d="M 305.789062 146.488281 L 305.789062 152.878906 C 305.789062 147.1875 301.183594 142.582031 295.511719 142.582031 L 166.527344 142.582031 L 166.527344 136.1875 L 295.511719 136.1875 C 301.183594 136.1875 305.789062 140.796875 305.789062 146.488281 Z M 305.789062 146.488281 " fill-opacity="1" fill-rule="nonzero"/><path fill="#ffffff" d="M 205.570312 154.398438 L 205.570312 177.773438 C 205.570312 179.535156 204.140625 180.964844 202.382812 180.964844 L 181.023438 180.964844 C 179.257812 180.964844 177.828125 179.535156 177.828125 177.773438 L 177.828125 154.398438 C 177.828125 152.640625 179.257812 151.210938 181.023438 151.210938 L 202.382812 151.210938 C 204.140625 151.210938 205.570312 152.640625 205.570312 154.398438 Z M 205.570312 154.398438 " fill-opacity="1" fill-rule="nonzero"/><path fill="#ffffff" d="M 260.386719 214.921875 L 260.386719 223.007812 C 260.386719 224.773438 258.960938 226.195312 257.195312 226.195312 L 245.125 226.195312 C 243.367188 226.195312 241.9375 224.773438 241.9375 223.007812 L 241.9375 214.921875 C 241.9375 213.160156 243.367188 211.734375 245.125 211.734375 L 257.195312 211.734375 C 258.960938 211.734375 260.386719 213.160156 260.386719 214.921875 Z M 260.386719 214.921875 " fill-opacity="1" fill-rule="nonzero"/><path fill="#ffffff" d="M 228.332031 214.921875 L 228.332031 223.007812 C 228.332031 224.773438 226.90625 226.195312 225.140625 226.195312 L 213.070312 226.195312 C 211.3125 226.195312 209.882812 224.773438 209.882812 223.007812 L 209.882812 214.921875 C 209.882812 213.160156 211.3125 211.734375 213.070312 211.734375 L 225.140625 211.734375 C 226.90625 211.734375 228.332031 213.160156 228.332031 214.921875 Z M 228.332031 214.921875 " fill-opacity="1" fill-rule="nonzero"/><path fill="#ffffff" d="M 196.277344 214.921875 L 196.277344 223.007812 C 196.277344 224.773438 194.851562 226.195312 193.089844 226.195312 L 181.023438 226.195312 C 179.257812 226.195312 177.828125 224.773438 177.828125 223.007812 L 177.828125 214.921875 C 177.828125 213.160156 179.257812 211.734375 181.023438 211.734375 L 193.089844 211.734375 C 194.851562 211.734375 196.277344 213.160156 196.277344 214.921875 Z M 196.277344 214.921875 " fill-opacity="1" fill-rule="nonzero"/><path fill="#ffffff" d="M 292.441406 214.921875 L 292.441406 223.007812 C 292.441406 224.773438 291.015625 226.195312 289.25 226.195312 L 277.179688 226.195312 C 275.421875 226.195312 273.992188 224.773438 273.992188 223.007812 L 273.992188 214.921875 C 273.992188 213.160156 275.421875 211.734375 277.179688 211.734375 L 289.25 211.734375 C 291.015625 211.734375 292.441406 213.160156 292.441406 214.921875 Z M 292.441406 214.921875 " fill-opacity="1" fill-rule="nonzero"/><path fill="#5046c3" d="M 250.792969 153.503906 L 291.054688 153.503906 L 291.054688 160.804688 L 250.792969 160.804688 Z M 250.792969 153.503906 " fill-opacity="1" fill-rule="nonzero"/><path fill="#5046c3" d="M 250.792969 169.359375 L 270.921875 169.359375 L 270.921875 176.660156 L 250.792969 176.660156 Z M 250.792969 169.359375 " fill-opacity="1" fill-rule="nonzero"/><path fill="#5046c3" d="M 295.511719 241.8125 L 269.167969 241.8125 C 268.84375 241.8125 268.578125 241.546875 268.578125 241.222656 C 268.578125 240.898438 268.84375 240.632812 269.167969 240.632812 L 295.511719 240.632812 C 300.855469 240.632812 305.199219 236.277344 305.199219 230.921875 L 305.199219 146.488281 C 305.199219 141.132812 300.855469 136.777344 295.511719 136.777344 L 167.117188 136.777344 L 167.117188 240.632812 L 258.0625 240.632812 C 258.386719 240.632812 258.652344 240.898438 258.652344 241.222656 C 258.652344 241.546875 258.386719 241.8125 258.0625 241.8125 L 166.527344 241.8125 C 166.203125 241.8125 165.9375 241.546875 165.9375 241.222656 L 165.9375 136.1875 C 165.9375 135.859375 166.203125 135.597656 166.527344 135.597656 L 295.511719 135.597656 C 301.503906 135.597656 306.378906 140.480469 306.378906 146.488281 L 306.378906 230.921875 C 306.378906 236.925781 301.503906 241.8125 295.511719 241.8125 Z M 295.511719 241.8125 " fill-opacity="1" fill-rule="nonzero"/><path fill="#5046c3" d="M 141.96875 192.71875 L 141.96875 239.277344 C 141.96875 240.34375 141.753906 241.394531 141.339844 242.378906 C 134.808594 258.066406 119.96875 268.792969 102.667969 278.09375 C 100.335938 279.347656 97.515625 279.347656 95.183594 278.09375 C 77.902344 268.792969 63.070312 258.066406 56.539062 242.378906 C 56.125 241.394531 55.910156 240.34375 55.910156 239.277344 L 55.910156 192.71875 C 55.910156 189.296875 58.105469 186.265625 61.359375 185.203125 L 96.476562 173.75 C 98.070312 173.230469 99.78125 173.230469 101.371094 173.75 L 136.519531 185.203125 C 139.773438 186.265625 141.96875 189.296875 141.96875 192.71875 Z M 141.96875 192.71875 " fill-opacity="1" fill-rule="nonzero"/><path fill="#5046c3" d="M 98.925781 279.628906 C 97.542969 279.628906 96.160156 279.289062 94.902344 278.613281 C 80.550781 270.886719 63.160156 259.8125 55.996094 242.605469 C 55.546875 241.546875 55.320312 240.425781 55.320312 239.277344 L 55.320312 192.71875 C 55.320312 189.03125 57.671875 185.785156 61.175781 184.644531 L 96.292969 173.191406 C 98.015625 172.628906 99.835938 172.628906 101.554688 173.191406 L 136.703125 184.644531 C 140.203125 185.785156 142.558594 189.03125 142.558594 192.71875 L 142.558594 239.277344 C 142.558594 240.425781 142.332031 241.546875 141.882812 242.609375 C 134.714844 259.820312 117.308594 270.890625 102.945312 278.613281 C 101.6875 279.289062 100.304688 279.628906 98.925781 279.628906 Z M 98.925781 173.949219 C 98.164062 173.949219 97.402344 174.070312 96.660156 174.3125 L 61.542969 185.765625 C 58.523438 186.746094 56.5 189.542969 56.5 192.71875 L 56.5 239.277344 C 56.5 240.265625 56.695312 241.234375 57.082031 242.148438 C 64.105469 259.015625 81.28125 269.941406 95.460938 277.574219 C 97.628906 278.738281 100.21875 278.738281 102.390625 277.574219 C 116.578125 269.945312 133.769531 259.023438 140.792969 242.152344 C 141.183594 241.234375 141.378906 240.265625 141.378906 239.277344 L 141.378906 192.71875 C 141.378906 189.542969 139.351562 186.746094 136.335938 185.765625 L 101.191406 174.3125 C 100.449219 174.070312 99.6875 173.949219 98.925781 173.949219 Z M 98.925781 173.949219 " fill-opacity="1" fill-rule="nonzero"/><path fill="#ffffff" d="M 132.386719 192.71875 L 132.386719 239.277344 C 132.386719 240.34375 132.171875 241.394531 131.757812 242.378906 C 125.226562 258.066406 110.386719 268.792969 93.085938 278.09375 C 90.753906 279.347656 87.933594 279.347656 85.601562 278.09375 C 68.320312 268.792969 53.488281 258.066406 46.957031 242.378906 C 46.542969 241.394531 46.328125 240.34375 46.328125 239.277344 L 46.328125 192.71875 C 46.328125 189.296875 48.523438 186.265625 51.777344 185.203125 L 86.894531 173.75 C 88.488281 173.230469 90.199219 173.230469 91.792969 173.75 L 126.9375 185.203125 C 130.191406 186.265625 132.386719 189.296875 132.386719 192.71875 Z M 132.386719 192.71875 " fill-opacity="1" fill-rule="nonzero"/><path fill="#5046c3" d="M 89.34375 279.628906 C 87.960938 279.628906 86.582031 279.289062 85.320312 278.613281 C 70.96875 270.886719 53.578125 259.8125 46.414062 242.605469 C 45.964844 241.546875 45.738281 240.425781 45.738281 239.277344 L 45.738281 192.71875 C 45.738281 189.03125 48.089844 185.785156 51.59375 184.644531 L 86.710938 173.191406 C 88.433594 172.628906 90.253906 172.628906 91.972656 173.191406 L 127.121094 184.644531 C 130.625 185.785156 132.976562 189.03125 132.976562 192.71875 L 132.976562 239.277344 C 132.976562 240.425781 132.75 241.546875 132.300781 242.609375 C 125.136719 259.820312 107.730469 270.890625 93.367188 278.613281 C 92.105469 279.289062 90.726562 279.628906 89.34375 279.628906 Z M 89.34375 173.949219 C 88.582031 173.949219 87.820312 174.070312 87.078125 174.3125 L 51.960938 185.765625 C 48.945312 186.746094 46.917969 189.542969 46.917969 192.71875 L 46.917969 239.277344 C 46.917969 240.265625 47.113281 241.234375 47.5 242.148438 C 54.523438 259.015625 71.699219 269.941406 85.878906 277.574219 C 88.046875 278.738281 90.636719 278.738281 92.808594 277.574219 C 107 269.945312 124.1875 259.023438 131.210938 242.152344 C 131.601562 241.234375 131.796875 240.265625 131.796875 239.277344 L 131.796875 192.71875 C 131.796875 189.542969 129.769531 186.746094 126.753906 185.765625 L 91.609375 174.3125 C 90.867188 174.070312 90.105469 173.949219 89.34375 173.949219 Z M 89.34375 173.949219 " fill-opacity="1" fill-rule="nonzero"/><path fill="#fede5a" d="M 89.34375 268.707031 C 88.804688 268.707031 88.265625 268.570312 87.792969 268.316406 C 75.867188 261.898438 61.4375 252.753906 55.683594 238.933594 C 55.5 238.5 55.410156 238.066406 55.410156 237.617188 L 55.410156 196.964844 C 55.410156 195.542969 56.316406 194.292969 57.664062 193.851562 L 88.332031 183.847656 C 88.660156 183.742188 89 183.6875 89.34375 183.6875 C 89.6875 183.6875 90.03125 183.742188 90.359375 183.851562 L 121.046875 193.851562 C 122.398438 194.292969 123.304688 195.542969 123.304688 196.964844 L 123.304688 237.617188 C 123.304688 238.0625 123.214844 238.5 123.039062 238.914062 C 117.277344 252.757812 102.835938 261.898438 90.894531 268.316406 C 90.421875 268.570312 89.886719 268.707031 89.34375 268.707031 Z M 89.34375 268.707031 " fill-opacity="1" fill-rule="nonzero"/><path fill="#ffffff" d="M 123.304688 196.960938 L 123.304688 237.621094 C 123.304688 238.0625 123.214844 238.5 123.035156 238.914062 C 121.9375 241.566406 120.507812 244.050781 118.84375 246.371094 C 119.453125 245.265625 120.003906 244.121094 120.496094 242.949219 C 120.675781 242.535156 120.761719 242.101562 120.761719 241.65625 L 120.761719 201 C 120.761719 199.582031 119.855469 198.332031 118.507812 197.886719 L 87.8125 187.886719 C 87.484375 187.78125 87.148438 187.726562 86.804688 187.726562 C 86.460938 187.726562 86.121094 187.78125 85.792969 187.886719 L 55.414062 197.792969 L 55.414062 196.960938 C 55.414062 195.542969 56.316406 194.292969 57.664062 193.851562 L 88.335938 183.851562 C 88.664062 183.742188 89.003906 183.6875 89.34375 183.6875 C 89.691406 183.6875 90.027344 183.742188 90.355469 183.851562 L 121.050781 193.851562 C 122.394531 194.292969 123.304688 195.542969 123.304688 196.960938 Z M 123.304688 196.960938 " fill-opacity="1" fill-rule="nonzero"/><path fill="#5046c3" d="M 89.34375 269.296875 C 88.707031 269.296875 88.074219 269.136719 87.515625 268.835938 C 75.5 262.371094 60.964844 253.152344 55.136719 239.160156 C 54.929688 238.664062 54.820312 238.144531 54.820312 237.617188 L 54.820312 196.964844 C 54.820312 195.285156 55.890625 193.808594 57.480469 193.292969 L 61.785156 191.886719 C 62.097656 191.785156 62.429688 191.957031 62.53125 192.265625 C 62.628906 192.574219 62.460938 192.910156 62.152344 193.007812 L 57.847656 194.414062 C 56.742188 194.773438 56 195.796875 56 196.964844 L 56 237.617188 C 56 237.988281 56.074219 238.34375 56.226562 238.703125 C 61.910156 252.355469 76.230469 261.421875 88.074219 267.796875 C 88.847656 268.214844 89.84375 268.214844 90.617188 267.796875 C 102.46875 261.425781 116.804688 252.359375 122.496094 238.6875 C 122.640625 238.34375 122.714844 237.984375 122.714844 237.617188 L 122.714844 196.964844 C 122.714844 195.796875 121.972656 194.773438 120.867188 194.414062 L 90.175781 184.410156 C 89.636719 184.234375 89.054688 184.234375 88.515625 184.410156 L 70.222656 190.378906 C 69.910156 190.480469 69.578125 190.308594 69.476562 190 C 69.375 189.691406 69.546875 189.355469 69.855469 189.257812 L 88.148438 183.289062 C 88.925781 183.035156 89.769531 183.035156 90.542969 183.289062 L 121.230469 193.292969 C 122.824219 193.808594 123.894531 195.285156 123.894531 196.964844 L 123.894531 237.617188 C 123.894531 238.144531 123.789062 238.65625 123.582031 239.144531 C 117.75 253.15625 103.199219 262.371094 91.175781 268.835938 C 90.617188 269.136719 89.984375 269.296875 89.34375 269.296875 Z M 89.34375 269.296875 " fill-opacity="1" fill-rule="nonzero"/><path fill="#ffffff" d="M 99.085938 221.457031 C 99.085938 225.308594 96.847656 228.636719 93.597656 230.214844 L 93.597656 236.988281 C 93.597656 239.324219 91.695312 241.222656 89.355469 241.222656 C 87.019531 241.222656 85.117188 239.324219 85.117188 236.988281 L 85.117188 230.214844 C 81.875 228.636719 79.632812 225.308594 79.632812 221.457031 C 79.632812 216.082031 83.984375 211.734375 89.355469 211.734375 C 94.730469 211.734375 99.085938 216.082031 99.085938 221.457031 Z M 99.085938 221.457031 " fill-opacity="1" fill-rule="nonzero"/><path fill="#5046c3" d="M 90.90625 240.929688 C 90.425781 241.121094 89.90625 241.222656 89.355469 241.222656 C 87.019531 241.222656 85.117188 239.324219 85.117188 236.988281 L 85.117188 230.214844 C 81.875 228.636719 79.632812 225.304688 79.632812 221.453125 C 79.632812 216.082031 83.984375 211.734375 89.355469 211.734375 C 89.882812 211.734375 90.398438 211.777344 90.90625 211.859375 C 86.265625 212.59375 82.722656 216.609375 82.722656 221.453125 C 82.722656 225.304688 84.960938 228.636719 88.207031 230.214844 L 88.207031 236.988281 C 88.207031 238.78125 89.328125 240.3125 90.90625 240.929688 Z M 90.90625 240.929688 " fill-opacity="1" fill-rule="nonzero"/><path fill="#5046c3" d="M 89.355469 241.8125 C 86.695312 241.8125 84.527344 239.648438 84.527344 236.988281 L 84.527344 230.578125 C 81.136719 228.777344 79.042969 225.316406 79.042969 221.457031 C 79.042969 215.769531 83.671875 211.144531 89.355469 211.144531 C 95.046875 211.144531 99.675781 215.769531 99.675781 221.457031 C 99.675781 225.316406 97.582031 228.777344 94.1875 230.578125 L 94.1875 236.988281 C 94.1875 239.648438 92.019531 241.8125 89.355469 241.8125 Z M 89.355469 212.324219 C 84.320312 212.324219 80.222656 216.417969 80.222656 221.457031 C 80.222656 224.984375 82.199219 228.136719 85.375 229.6875 C 85.578125 229.785156 85.707031 229.992188 85.707031 230.214844 L 85.707031 236.988281 C 85.707031 238.996094 87.34375 240.632812 89.355469 240.632812 C 91.371094 240.632812 93.007812 238.996094 93.007812 236.988281 L 93.007812 230.214844 C 93.007812 229.992188 93.136719 229.785156 93.339844 229.6875 C 96.519531 228.136719 98.496094 224.984375 98.496094 221.457031 C 98.496094 216.417969 94.394531 212.324219 89.355469 212.324219 Z M 89.355469 212.324219 " fill-opacity="1" fill-rule="nonzero"/><path fill="#5046c3" d="M 319.449219 50.632812 L 307.617188 50.632812 L 307.617188 73.574219 L 319.449219 73.574219 C 321.617188 73.574219 323.378906 71.8125 323.378906 69.648438 L 323.378906 54.558594 C 323.378906 52.394531 321.617188 50.632812 319.449219 50.632812 Z M 319.449219 50.632812 " fill-opacity="1" fill-rule="nonzero"/><path fill="#5046c3" d="M 319.449219 74.164062 L 307.617188 74.164062 C 307.292969 74.164062 307.027344 73.902344 307.027344 73.574219 L 307.027344 50.632812 C 307.027344 50.308594 307.292969 50.042969 307.617188 50.042969 L 319.449219 50.042969 C 321.941406 50.042969 323.96875 52.070312 323.96875 54.558594 L 323.96875 69.648438 C 323.96875 72.140625 321.941406 74.164062 319.449219 74.164062 Z M 308.207031 72.984375 L 319.449219 72.984375 C 321.289062 72.984375 322.789062 71.488281 322.789062 69.648438 L 322.789062 54.558594 C 322.789062 52.71875 321.289062 51.222656 319.449219 51.222656 L 308.207031 51.222656 Z M 308.207031 72.984375 " fill-opacity="1" fill-rule="nonzero"/><path fill="#fede5a" d="M 318.882812 54.558594 L 318.882812 69.648438 C 318.882812 71.8125 317.121094 73.574219 314.953125 73.574219 L 270.773438 73.574219 C 268.605469 73.574219 266.847656 71.8125 266.847656 69.648438 L 266.847656 54.558594 C 266.847656 52.394531 268.605469 50.632812 270.773438 50.632812 L 314.953125 50.632812 C 317.121094 50.632812 318.882812 52.394531 318.882812 54.558594 Z M 318.882812 54.558594 " fill-opacity="1" fill-rule="nonzero"/><path fill="#ffffff" d="M 318.882812 54.558594 L 318.882812 57.761719 C 318.882812 55.597656 317.121094 53.839844 314.953125 53.839844 L 270.773438 53.839844 C 268.605469 53.839844 266.847656 55.597656 266.847656 57.761719 L 266.847656 54.558594 C 266.847656 52.394531 268.605469 50.632812 270.773438 50.632812 L 314.953125 50.632812 C 317.121094 50.632812 318.882812 52.394531 318.882812 54.558594 Z M 318.882812 54.558594 " fill-opacity="1" fill-rule="nonzero"/><path fill="#5046c3" d="M 314.953125 74.164062 L 270.773438 74.164062 C 268.285156 74.164062 266.257812 72.140625 266.257812 69.648438 L 266.257812 54.558594 C 266.257812 52.070312 268.285156 50.042969 270.773438 50.042969 L 314.953125 50.042969 C 317.445312 50.042969 319.472656 52.070312 319.472656 54.558594 L 319.472656 69.648438 C 319.472656 72.140625 317.445312 74.164062 314.953125 74.164062 Z M 270.773438 51.222656 C 268.933594 51.222656 267.4375 52.71875 267.4375 54.558594 L 267.4375 69.648438 C 267.4375 71.488281 268.933594 72.984375 270.773438 72.984375 L 314.953125 72.984375 C 316.792969 72.984375 318.292969 71.488281 318.292969 69.648438 L 318.292969 54.558594 C 318.292969 52.71875 316.792969 51.222656 314.953125 51.222656 Z M 270.773438 51.222656 " fill-opacity="1" fill-rule="nonzero"/><path fill="#5046c3" d="M 279.34375 66.832031 C 279.015625 66.832031 278.753906 66.570312 278.753906 66.242188 L 278.753906 57.964844 C 278.753906 57.636719 279.015625 57.375 279.34375 57.375 C 279.667969 57.375 279.933594 57.636719 279.933594 57.964844 L 279.933594 66.242188 C 279.933594 66.570312 279.667969 66.832031 279.34375 66.832031 Z M 279.34375 66.832031 " fill-opacity="1" fill-rule="nonzero"/><path fill="#5046c3" d="M 275.800781 64.691406 C 275.597656 64.691406 275.398438 64.582031 275.289062 64.394531 C 275.125 64.113281 275.222656 63.75 275.503906 63.589844 L 282.675781 59.449219 C 282.957031 59.285156 283.316406 59.382812 283.480469 59.664062 C 283.644531 59.949219 283.546875 60.308594 283.265625 60.472656 L 276.09375 64.609375 C 276.003906 64.664062 275.902344 64.691406 275.800781 64.691406 Z M 275.800781 64.691406 " fill-opacity="1" fill-rule="nonzero"/><path fill="#5046c3" d="M 282.882812 64.691406 C 282.785156 64.691406 282.683594 64.664062 282.589844 64.609375 L 275.417969 60.472656 C 275.136719 60.308594 275.042969 59.949219 275.203125 59.664062 C 275.367188 59.382812 275.726562 59.285156 276.007812 59.449219 L 283.179688 63.589844 C 283.460938 63.75 283.558594 64.113281 283.394531 64.394531 C 283.285156 64.582031 283.089844 64.691406 282.882812 64.691406 Z M 282.882812 64.691406 " fill-opacity="1" fill-rule="nonzero"/><path fill="#5046c3" d="M 292.867188 66.832031 C 292.539062 66.832031 292.277344 66.570312 292.277344 66.242188 L 292.277344 57.964844 C 292.277344 57.636719 292.539062 57.375 292.867188 57.375 C 293.191406 57.375 293.457031 57.636719 293.457031 57.964844 L 293.457031 66.242188 C 293.457031 66.570312 293.191406 66.832031 292.867188 66.832031 Z M 292.867188 66.832031 " fill-opacity="1" fill-rule="nonzero"/><path fill="#5046c3" d="M 289.324219 64.691406 C 289.121094 64.691406 288.921875 64.582031 288.8125 64.394531 C 288.648438 64.113281 288.746094 63.75 289.027344 63.589844 L 296.199219 59.449219 C 296.480469 59.285156 296.839844 59.382812 297.003906 59.664062 C 297.167969 59.949219 297.070312 60.308594 296.789062 60.472656 L 289.617188 64.609375 C 289.527344 64.664062 289.425781 64.691406 289.324219 64.691406 Z M 289.324219 64.691406 " fill-opacity="1" fill-rule="nonzero"/><path fill="#5046c3" d="M 296.40625 64.691406 C 296.308594 64.691406 296.207031 64.664062 296.113281 64.609375 L 288.945312 60.472656 C 288.660156 60.308594 288.566406 59.949219 288.726562 59.664062 C 288.890625 59.382812 289.25 59.285156 289.535156 59.449219 L 296.703125 63.589844 C 296.984375 63.75 297.082031 64.113281 296.917969 64.394531 C 296.808594 64.582031 296.613281 64.691406 296.40625 64.691406 Z M 296.40625 64.691406 " fill-opacity="1" fill-rule="nonzero"/><path fill="#5046c3" d="M 306.390625 66.832031 C 306.0625 66.832031 305.800781 66.570312 305.800781 66.242188 L 305.800781 57.964844 C 305.800781 57.636719 306.0625 57.375 306.390625 57.375 C 306.714844 57.375 306.980469 57.636719 306.980469 57.964844 L 306.980469 66.242188 C 306.980469 66.570312 306.714844 66.832031 306.390625 66.832031 Z M 306.390625 66.832031 " fill-opacity="1" fill-rule="nonzero"/><path fill="#5046c3" d="M 302.847656 64.691406 C 302.644531 64.691406 302.445312 64.582031 302.335938 64.394531 C 302.175781 64.113281 302.269531 63.75 302.550781 63.589844 L 309.722656 59.449219 C 310.003906 59.285156 310.367188 59.382812 310.527344 59.664062 C 310.691406 59.949219 310.59375 60.308594 310.3125 60.472656 L 303.140625 64.609375 C 303.050781 64.664062 302.949219 64.691406 302.847656 64.691406 Z M 302.847656 64.691406 " fill-opacity="1" fill-rule="nonzero"/><path fill="#5046c3" d="M 309.933594 64.691406 C 309.832031 64.691406 309.730469 64.664062 309.636719 64.609375 L 302.46875 60.472656 C 302.183594 60.308594 302.089844 59.949219 302.25 59.664062 C 302.414062 59.382812 302.773438 59.285156 303.058594 59.449219 L 310.226562 63.589844 C 310.507812 63.75 310.605469 64.113281 310.441406 64.394531 C 310.332031 64.582031 310.136719 64.691406 309.933594 64.691406 Z M 309.933594 64.691406 " fill-opacity="1" fill-rule="nonzero"/><path fill="#5046c3" d="M 196.382812 65.164062 C 196.234375 65.164062 196.085938 65.109375 195.972656 65 C 195.738281 64.773438 195.730469 64.398438 195.957031 64.164062 L 208.574219 51.167969 C 208.800781 50.933594 209.171875 50.929688 209.40625 51.15625 C 209.640625 51.382812 209.644531 51.757812 209.417969 51.988281 L 196.804688 64.984375 C 196.691406 65.105469 196.535156 65.164062 196.382812 65.164062 Z M 196.382812 65.164062 " fill-opacity="1" fill-rule="nonzero"/><path fill="#5046c3" d="M 182.882812 67.226562 C 182.738281 67.226562 182.589844 67.171875 182.472656 67.058594 C 182.238281 66.832031 182.234375 66.460938 182.460938 66.226562 L 195.074219 53.230469 C 195.300781 52.996094 195.675781 52.992188 195.910156 53.21875 C 196.144531 53.445312 196.148438 53.816406 195.921875 54.050781 L 183.308594 67.046875 C 183.191406 67.167969 183.039062 67.226562 182.882812 67.226562 Z M 182.882812 67.226562 " fill-opacity="1" fill-rule="nonzero"/><path fill="#5046c3" d="M 48.96875 304.855469 C 48.816406 304.855469 48.667969 304.796875 48.554688 304.683594 C 48.320312 304.457031 48.316406 304.082031 48.546875 303.851562 L 64.515625 287.542969 C 64.742188 287.308594 65.117188 287.304688 65.347656 287.535156 C 65.582031 287.761719 65.585938 288.136719 65.359375 288.367188 L 49.386719 304.675781 C 49.273438 304.792969 49.121094 304.855469 48.96875 304.855469 Z M 48.96875 304.855469 " fill-opacity="1" fill-rule="nonzero"/><path fill="#5046c3" d="M 50.328125 312.328125 C 50.171875 312.328125 50.019531 312.269531 49.90625 312.152344 C 49.675781 311.917969 49.679688 311.546875 49.914062 311.316406 L 58.746094 302.652344 C 58.980469 302.425781 59.351562 302.429688 59.582031 302.660156 C 59.808594 302.894531 59.804688 303.265625 59.574219 303.496094 L 50.738281 312.160156 C 50.625 312.273438 50.476562 312.328125 50.328125 312.328125 Z M 50.328125 312.328125 " fill-opacity="1" fill-rule="nonzero"/><path fill="#5046c3" d="M 308.011719 269.121094 C 307.859375 269.121094 307.710938 269.066406 307.59375 268.949219 C 307.363281 268.71875 307.363281 268.347656 307.59375 268.117188 L 319.144531 256.5625 C 319.375 256.332031 319.75 256.332031 319.980469 256.5625 C 320.210938 256.792969 320.210938 257.167969 319.980469 257.398438 L 308.429688 268.949219 C 308.3125 269.066406 308.160156 269.121094 308.011719 269.121094 Z M 308.011719 269.121094 " fill-opacity="1" fill-rule="nonzero"/><path fill="#5046c3" d="M 309.03125 275.917969 C 308.875 275.917969 308.722656 275.859375 308.609375 275.738281 C 308.378906 275.507812 308.386719 275.132812 308.617188 274.90625 L 329.34375 254.691406 C 329.578125 254.464844 329.949219 254.46875 330.179688 254.699219 C 330.40625 254.933594 330.402344 255.308594 330.167969 255.535156 L 309.441406 275.75 C 309.328125 275.863281 309.179688 275.917969 309.03125 275.917969 Z M 309.03125 275.917969 " fill-opacity="1" fill-rule="nonzero"/><path fill="#ffffff" d="M 237.148438 139.363281 C 228.515625 146.941406 223.292969 154.144531 225.09375 156.433594 C 227.191406 159.105469 238.003906 154.113281 249.246094 145.285156 C 251.632812 143.410156 253.84375 141.515625 255.832031 139.664062 Z M 237.148438 139.363281 " fill-opacity="1" fill-rule="nonzero"/><path fill="#ffffff" d="M 97 190.242188 C 91.660156 194.929688 88.429688 199.382812 89.542969 200.800781 C 90.839844 202.449219 97.527344 199.363281 104.476562 193.90625 C 105.953125 192.746094 107.320312 191.574219 108.550781 190.429688 Z M 97 190.242188 " fill-opacity="1" fill-rule="nonzero"/><path fill="#5046c3" d="M 165.617188 316.980469 C 165.617188 317.34375 165.582031 317.703125 165.511719 318.058594 C 165.441406 318.414062 165.335938 318.757812 165.199219 319.09375 C 165.058594 319.429688 164.886719 319.746094 164.6875 320.050781 C 164.484375 320.351562 164.257812 320.628906 164 320.886719 C 163.742188 321.144531 163.464844 321.371094 163.160156 321.574219 C 162.859375 321.777344 162.542969 321.945312 162.207031 322.085938 C 161.871094 322.222656 161.527344 322.328125 161.171875 322.398438 C 160.8125 322.46875 160.453125 322.503906 160.09375 322.503906 C 159.730469 322.503906 159.371094 322.46875 159.015625 322.398438 C 158.65625 322.328125 158.3125 322.222656 157.976562 322.085938 C 157.640625 321.945312 157.324219 321.777344 157.023438 321.574219 C 156.71875 321.371094 156.441406 321.144531 156.183594 320.886719 C 155.929688 320.628906 155.699219 320.351562 155.496094 320.050781 C 155.296875 319.746094 155.125 319.429688 154.988281 319.09375 C 154.847656 318.757812 154.742188 318.414062 154.671875 318.058594 C 154.601562 317.703125 154.566406 317.34375 154.566406 316.980469 C 154.566406 316.617188 154.601562 316.257812 154.671875 315.902344 C 154.742188 315.546875 154.847656 315.199219 154.988281 314.863281 C 155.125 314.53125 155.296875 314.210938 155.496094 313.910156 C 155.699219 313.609375 155.929688 313.328125 156.183594 313.070312 C 156.441406 312.816406 156.71875 312.585938 157.023438 312.386719 C 157.324219 312.183594 157.640625 312.011719 157.976562 311.875 C 158.3125 311.734375 158.65625 311.628906 159.015625 311.558594 C 159.371094 311.488281 159.730469 311.453125 160.09375 311.453125 C 160.453125 311.453125 160.8125 311.488281 161.171875 311.558594 C 161.527344 311.628906 161.871094 311.734375 162.207031 311.875 C 162.542969 312.011719 162.859375 312.183594 163.160156 312.386719 C 163.464844 312.585938 163.742188 312.816406 164 313.070312 C 164.257812 313.328125 164.484375 313.609375 164.6875 313.910156 C 164.886719 314.210938 165.058594 314.53125 165.195312 314.863281 C 165.335938 315.199219 165.441406 315.546875 165.511719 315.902344 C 165.582031 316.257812 165.617188 316.617188 165.617188 316.980469 Z M 165.617188 316.980469 " fill-opacity="1" fill-rule="nonzero"/><path fill="#5046c3" d="M 160.089844 323.09375 C 156.71875 323.09375 153.976562 320.351562 153.976562 316.980469 C 153.976562 313.605469 156.71875 310.863281 160.089844 310.863281 C 163.464844 310.863281 166.207031 313.605469 166.207031 316.980469 C 166.207031 320.351562 163.464844 323.09375 160.089844 323.09375 Z M 160.089844 312.042969 C 157.371094 312.042969 155.15625 314.257812 155.15625 316.980469 C 155.15625 319.703125 157.371094 321.917969 160.089844 321.917969 C 162.8125 321.917969 165.027344 319.703125 165.027344 316.980469 C 165.027344 314.257812 162.8125 312.042969 160.089844 312.042969 Z M 160.089844 312.042969 " fill-opacity="1" fill-rule="nonzero"/><path fill="#5046c3" d="M 186.628906 316.980469 C 186.628906 317.34375 186.59375 317.703125 186.523438 318.058594 C 186.453125 318.414062 186.347656 318.757812 186.207031 319.09375 C 186.070312 319.429688 185.898438 319.746094 185.699219 320.050781 C 185.496094 320.351562 185.265625 320.628906 185.011719 320.886719 C 184.753906 321.144531 184.476562 321.371094 184.171875 321.574219 C 183.871094 321.777344 183.554688 321.945312 183.21875 322.085938 C 182.882812 322.222656 182.539062 322.328125 182.179688 322.398438 C 181.824219 322.46875 181.464844 322.503906 181.101562 322.503906 C 180.742188 322.503906 180.382812 322.46875 180.023438 322.398438 C 179.667969 322.328125 179.324219 322.222656 178.988281 322.085938 C 178.652344 321.945312 178.335938 321.777344 178.035156 321.574219 C 177.730469 321.371094 177.453125 321.144531 177.195312 320.886719 C 176.9375 320.628906 176.710938 320.351562 176.507812 320.050781 C 176.308594 319.746094 176.136719 319.429688 176 319.09375 C 175.859375 318.757812 175.753906 318.414062 175.683594 318.058594 C 175.613281 317.703125 175.578125 317.34375 175.578125 316.980469 C 175.578125 316.617188 175.613281 316.257812 175.683594 315.902344 C 175.753906 315.546875 175.859375 315.199219 176 314.863281 C 176.136719 314.53125 176.308594 314.210938 176.507812 313.910156 C 176.710938 313.609375 176.9375 313.328125 177.195312 313.070312 C 177.453125 312.816406 177.730469 312.585938 178.035156 312.386719 C 178.335938 312.183594 178.652344 312.011719 178.988281 311.875 C 179.324219 311.734375 179.667969 311.628906 180.023438 311.558594 C 180.382812 311.488281 180.742188 311.453125 181.101562 311.453125 C 181.464844 311.453125 181.824219 311.488281 182.179688 311.558594 C 182.539062 311.628906 182.882812 311.734375 183.21875 311.875 C 183.554688 312.011719 183.871094 312.183594 184.171875 312.386719 C 184.476562 312.585938 184.753906 312.816406 185.011719 313.070312 C 185.265625 313.328125 185.496094 313.609375 185.699219 313.910156 C 185.898438 314.210938 186.070312 314.53125 186.207031 314.863281 C 186.347656 315.199219 186.453125 315.546875 186.523438 315.902344 C 186.59375 316.257812 186.628906 316.617188 186.628906 316.980469 Z M 186.628906 316.980469 " fill-opacity="1" fill-rule="nonzero"/><path fill="#5046c3" d="M 181.105469 323.09375 C 177.730469 323.09375 174.988281 320.351562 174.988281 316.980469 C 174.988281 313.605469 177.730469 310.863281 181.105469 310.863281 C 184.476562 310.863281 187.21875 313.605469 187.21875 316.980469 C 187.21875 320.351562 184.476562 323.09375 181.105469 323.09375 Z M 181.105469 312.042969 C 178.382812 312.042969 176.167969 314.257812 176.167969 316.980469 C 176.167969 319.703125 178.382812 321.917969 181.105469 321.917969 C 183.824219 321.917969 186.039062 319.703125 186.039062 316.980469 C 186.039062 314.257812 183.824219 312.042969 181.105469 312.042969 Z M 181.105469 312.042969 " fill-opacity="1" fill-rule="nonzero"/><path fill="#5046c3" d="M 207.640625 316.980469 C 207.640625 317.34375 207.605469 317.703125 207.535156 318.058594 C 207.464844 318.414062 207.359375 318.757812 207.222656 319.09375 C 207.082031 319.429688 206.910156 319.746094 206.710938 320.050781 C 206.507812 320.351562 206.28125 320.628906 206.023438 320.886719 C 205.765625 321.144531 205.488281 321.371094 205.1875 321.574219 C 204.882812 321.777344 204.566406 321.945312 204.230469 322.085938 C 203.894531 322.222656 203.550781 322.328125 203.195312 322.398438 C 202.835938 322.46875 202.476562 322.503906 202.117188 322.503906 C 201.753906 322.503906 201.394531 322.46875 201.039062 322.398438 C 200.679688 322.328125 200.335938 322.222656 200 322.085938 C 199.664062 321.945312 199.347656 321.777344 199.046875 321.574219 C 198.742188 321.371094 198.464844 321.144531 198.207031 320.886719 C 197.953125 320.628906 197.722656 320.351562 197.519531 320.050781 C 197.320312 319.746094 197.148438 319.429688 197.011719 319.09375 C 196.871094 318.757812 196.765625 318.414062 196.695312 318.058594 C 196.625 317.703125 196.589844 317.34375 196.589844 316.980469 C 196.589844 316.617188 196.625 316.257812 196.695312 315.902344 C 196.765625 315.546875 196.871094 315.199219 197.011719 314.863281 C 197.148438 314.53125 197.320312 314.210938 197.519531 313.910156 C 197.722656 313.609375 197.953125 313.328125 198.207031 313.070312 C 198.464844 312.816406 198.742188 312.585938 199.046875 312.386719 C 199.347656 312.183594 199.664062 312.011719 200 311.875 C 200.335938 311.734375 200.679688 311.628906 201.039062 311.558594 C 201.394531 311.488281 201.753906 311.453125 202.117188 311.453125 C 202.476562 311.453125 202.835938 311.488281 203.195312 311.558594 C 203.550781 311.628906 203.894531 311.734375 204.230469 311.875 C 204.566406 312.011719 204.882812 312.183594 205.1875 312.386719 C 205.488281 312.585938 205.765625 312.816406 206.023438 313.070312 C 206.28125 313.328125 206.507812 313.609375 206.710938 313.910156 C 206.910156 314.210938 207.082031 314.53125 207.222656 314.863281 C 207.359375 315.199219 207.464844 315.546875 207.535156 315.902344 C 207.605469 316.257812 207.640625 316.617188 207.640625 316.980469 Z M 207.640625 316.980469 " fill-opacity="1" fill-rule="nonzero"/><path fill="#5046c3" d="M 202.117188 323.09375 C 198.742188 323.09375 196 320.351562 196 316.980469 C 196 313.605469 198.742188 310.863281 202.117188 310.863281 C 205.488281 310.863281 208.230469 313.605469 208.230469 316.980469 C 208.230469 320.351562 205.488281 323.09375 202.117188 323.09375 Z M 202.117188 312.042969 C 199.394531 312.042969 197.179688 314.257812 197.179688 316.980469 C 197.179688 319.703125 199.394531 321.917969 202.117188 321.917969 C 204.835938 321.917969 207.050781 319.703125 207.050781 316.980469 C 207.050781 314.257812 204.835938 312.042969 202.117188 312.042969 Z M 202.117188 312.042969 " fill-opacity="1" fill-rule="nonzero"/><g clip-path="url(#22c36984e2)"><g clip-path="url(#7cca1cd0fb)"><path fill="#ffffff" d="M 68.25 64.425781 L 103.351562 64.425781 L 103.351562 107.890625 L 68.25 107.890625 Z M 68.25 64.425781 " fill-opacity="1" fill-rule="nonzero"/></g></g><g clip-path="url(#8ab35b9af1)"><g clip-path="url(#2e833a71d3)"><path fill="#ffffff" d="M 84.601562 90 L 98.476562 90 L 98.476562 105.390625 L 84.601562 105.390625 Z M 84.601562 90 " fill-opacity="1" fill-rule="nonzero"/></g></g><g clip-path="url(#4a94723217)"><g clip-path="url(#9812a98b7c)"><path fill="#ffffff" d="M 86.25 87.601562 L 99.976562 87.601562 L 99.976562 103.523438 L 86.25 103.523438 Z M 86.25 87.601562 " fill-opacity="1" fill-rule="nonzero"/></g></g><g clip-path="url(#3cd4e25a8f)"><path fill="#6c68f9" d="M 191.664062 165.589844 C 194.859375 165.589844 197.464844 162.195312 197.464844 158.996094 C 197.464844 155.796875 194.859375 153.195312 191.664062 153.195312 C 188.464844 153.195312 185.863281 155.796875 185.863281 158.996094 C 185.863281 162.195312 188.464844 165.589844 191.664062 165.589844 Z M 191.664062 165.589844 " fill-opacity="1" fill-rule="nonzero"/></g><g clip-path="url(#4ee897fc56)"><path fill="#6c68f9" d="M 196.015625 165.648438 C 194.890625 166.503906 193.488281 167.015625 191.96875 167.015625 L 191.355469 167.015625 C 189.835938 167.015625 188.433594 166.503906 187.308594 165.648438 C 183.632812 166.242188 180.828125 169.425781 180.828125 173.269531 C 180.828125 175.378906 185.679688 177.089844 191.664062 177.089844 C 197.644531 177.089844 202.496094 175.378906 202.496094 173.269531 C 202.496094 169.425781 199.691406 166.242188 196.015625 165.648438 Z M 196.015625 165.648438 " fill-opacity="1" fill-rule="nonzero"/></g><path fill="#fede5a" d="M 81.703125 96.027344 C 79.421875 96.5625 78.988281 97 78.449219 99.28125 C 77.914062 97 77.480469 96.5625 75.199219 96.027344 C 77.480469 95.492188 77.914062 95.054688 78.449219 92.777344 C 78.988281 95.054688 79.421875 95.492188 81.703125 96.027344 Z M 81.703125 96.027344 " fill-opacity="1" fill-rule="nonzero"/><g clip-path="url(#724d88d6e0)"><path fill="#fede5a" d="M 103.96875 87.59375 C 87.164062 88.351562 86.550781 88.964844 85.796875 105.769531 C 85.039062 88.964844 84.425781 88.351562 67.621094 87.59375 C 84.425781 86.839844 85.039062 86.226562 85.796875 69.421875 C 86.550781 86.226562 87.164062 86.839844 103.96875 87.59375 Z M 103.96875 87.59375 " fill-opacity="1" fill-rule="nonzero"/></g><path fill="#fede5a" d="M 81.691406 77.996094 C 77.9375 78.164062 77.800781 78.300781 77.632812 82.054688 C 77.464844 78.300781 77.328125 78.164062 73.574219 77.996094 C 77.328125 77.828125 77.464844 77.691406 77.632812 73.9375 C 77.800781 77.691406 77.9375 77.828125 81.691406 77.996094 Z M 81.691406 77.996094 " fill-opacity="1" fill-rule="nonzero"/><path fill="#fede5a" d="M 102.070312 77.652344 C 96.558594 77.902344 96.359375 78.101562 96.113281 83.613281 C 95.863281 78.101562 95.664062 77.902344 90.152344 77.652344 C 95.664062 77.40625 95.863281 77.203125 96.113281 71.691406 C 96.359375 77.203125 96.558594 77.40625 102.070312 77.652344 Z M 102.070312 77.652344 " fill-opacity="1" fill-rule="nonzero"/><path fill="#fede5a" d="M 102.070312 73.59375 C 100.570312 73.660156 100.515625 73.714844 100.449219 75.21875 C 100.378906 73.714844 100.324219 73.660156 98.824219 73.59375 C 100.324219 73.527344 100.378906 73.472656 100.449219 71.972656 C 100.515625 73.472656 100.570312 73.527344 102.070312 73.59375 Z M 102.070312 73.59375 " fill-opacity="1" fill-rule="nonzero"/><path fill="#fede5a" d="M 92.707031 71.691406 C 91.207031 71.761719 91.152344 71.816406 91.085938 73.316406 C 91.015625 71.816406 90.960938 71.761719 89.460938 71.691406 C 90.960938 71.625 91.015625 71.570312 91.085938 70.070312 C 91.152344 71.570312 91.207031 71.625 92.707031 71.691406 Z M 92.707031 71.691406 " fill-opacity="1" fill-rule="nonzero"/></svg>